<?xml version="1.0" encoding="UTF-8"?>
<!-- Generated by Pixelmator Pro 3.0 -->
<svg width="3300" height="2200" viewBox="0 0 3300 2200" xmlns="http://www.w3.org/2000/svg" xmlns:xlink="http://www.w3.org/1999/xlink">
    <g id="Notes">
        <path id="artboard" fill="#ffffff" stroke="none" d="M 0 0 L 3300 0 L 3300 2200 L 0 2200 Z"/>
        <path id="Path" fill="none" stroke="#000000" stroke-width="0.5" stroke-linecap="round" stroke-linejoin="round" d="M 263 292 L 3036 292"/>
        <text id="WeightScale-Variations" xml:space="preserve" x="261" y="320" font-family="Helvetica" font-size="13" font-weight="700" fill="#000000">Weight/Scale Variations</text>
        <text id="Ultralight" xml:space="preserve" x="560" y="320" text-anchor="middle" font-family="Helvetica" font-size="13" fill="#000000">Ultralight</text>
        <text id="Thin" xml:space="preserve" x="856" y="320" text-anchor="middle" font-family="Helvetica" font-size="13" fill="#000000">Thin</text>
        <text id="Light" xml:space="preserve" x="1153.5" y="320" text-anchor="middle" font-family="Helvetica" font-size="13" fill="#000000">Light</text>
        <text id="Regular" xml:space="preserve" x="1450" y="320" text-anchor="middle" font-family="Helvetica" font-size="13" fill="#000000">Regular</text>
        <text id="Medium" xml:space="preserve" x="1746.5" y="320" text-anchor="middle" font-family="Helvetica" font-size="13" fill="#000000">Medium</text>
        <text id="Semibold" xml:space="preserve" x="2043.5" y="320" text-anchor="middle" font-family="Helvetica" font-size="13" fill="#000000">Semibold</text>
        <text id="Bold" xml:space="preserve" x="2339.5" y="320" text-anchor="middle" font-family="Helvetica" font-size="13" fill="#000000">Bold</text>
        <text id="Heavy" xml:space="preserve" x="2636.5" y="320" text-anchor="middle" font-family="Helvetica" font-size="13" fill="#000000">Heavy</text>
        <text id="Black" xml:space="preserve" x="2933" y="320" text-anchor="middle" font-family="Helvetica" font-size="13" fill="#000000">Black</text>
        <path id="path1" fill="none" stroke="#000000" stroke-width="0.5" stroke-linecap="round" stroke-linejoin="round" d="M 263 1903 L 3036 1903"/>
        <g id="Group">
            <path id="path2" fill="#000000" stroke="none" d="M 272.248047 1933.830078 C 276.554688 1933.830078 280.138702 1930.255859 280.138702 1925.949219 C 280.138702 1921.642578 276.544891 1918.068359 272.238281 1918.068359 C 267.941406 1918.068359 264.367188 1921.642578 264.367188 1925.949219 C 264.367188 1930.255859 267.951172 1933.830078 272.248047 1933.830078 Z M 272.248047 1932.345703 C 268.703125 1932.345703 265.871094 1929.503906 265.871094 1925.949219 C 265.871094 1922.394531 268.693359 1919.552734 272.238281 1919.552734 C 275.792999 1919.552734 278.644501 1922.394531 278.644501 1925.949219 C 278.644501 1929.503906 275.802704 1932.345703 272.248047 1932.345703 Z M 268.654297 1925.949219 C 268.654297 1926.378906 268.957031 1926.671875 269.40625 1926.671875 L 271.505859 1926.671875 L 271.505859 1928.791016 C 271.505859 1929.230469 271.798828 1929.533203 272.228516 1929.533203 C 272.677734 1929.533203 272.970703 1929.230469 272.970703 1928.791016 L 272.970703 1926.671875 L 275.089813 1926.671875 C 275.529297 1926.671875 275.832001 1926.378906 275.832001 1925.949219 C 275.832001 1925.509766 275.529297 1925.207031 275.089813 1925.207031 L 272.970703 1925.207031 L 272.970703 1923.097656 C 272.970703 1922.648438 272.677734 1922.345703 272.228516 1922.345703 C 271.798828 1922.345703 271.505859 1922.648438 271.505859 1923.097656 L 271.505859 1925.207031 L 269.40625 1925.207031 C 268.957031 1925.207031 268.654297 1925.509766 268.654297 1925.949219 Z"/>
        </g>
        <g id="g1">
            <path id="path3" fill="#000000" stroke="none" d="M 293.575989 1935.910156 C 299.025208 1935.910156 303.536896 1931.388672 303.536896 1925.949219 C 303.536896 1920.5 299.015411 1915.988281 293.566193 1915.988281 C 288.12677 1915.988281 283.615051 1920.5 283.615051 1925.949219 C 283.615051 1931.388672 288.136536 1935.910156 293.575989 1935.910156 Z M 293.575989 1934.25 C 288.966614 1934.25 285.284973 1930.558594 285.284973 1925.949219 C 285.284973 1921.339844 288.956848 1917.648438 293.566193 1917.648438 C 298.175598 1917.648438 301.876801 1921.339844 301.876801 1925.949219 C 301.876801 1930.558594 298.185394 1934.25 293.575989 1934.25 Z M 289.044739 1925.949219 C 289.044739 1926.427734 289.37677 1926.75 289.874817 1926.75 L 292.745911 1926.75 L 292.745911 1929.630859 C 292.745911 1930.119141 293.077911 1930.460938 293.556488 1930.460938 C 294.044708 1930.460938 294.386505 1930.128906 294.386505 1929.630859 L 294.386505 1926.75 L 297.267395 1926.75 C 297.755707 1926.75 298.097504 1926.427734 298.097504 1925.949219 C 298.097504 1925.460938 297.755707 1925.119141 297.267395 1925.119141 L 294.386505 1925.119141 L 294.386505 1922.248047 C 294.386505 1921.75 294.044708 1921.408203 293.556488 1921.408203 C 293.077911 1921.408203 292.745911 1921.75 292.745911 1922.248047 L 292.745911 1925.119141 L 289.874817 1925.119141 C 289.37677 1925.119141 289.044739 1925.460938 289.044739 1925.949219 Z"/>
        </g>
        <g id="g2">
            <path id="path4" fill="#000000" stroke="none" d="M 320.616699 1938.664063 C 327.57959 1938.664063 333.341309 1932.902344 333.341309 1925.949219 C 333.341309 1918.986328 327.569794 1913.224609 320.606903 1913.224609 C 313.653809 1913.224609 307.901855 1918.986328 307.901855 1925.949219 C 307.901855 1932.902344 313.663574 1938.664063 320.616699 1938.664063 Z M 320.616699 1936.847656 C 314.581543 1936.847656 309.728027 1931.984375 309.728027 1925.949219 C 309.728027 1919.904297 314.571777 1915.050781 320.606903 1915.050781 C 326.651886 1915.050781 331.515106 1919.904297 331.515106 1925.949219 C 331.515106 1931.984375 326.661591 1936.847656 320.616699 1936.847656 Z M 314.845215 1925.949219 C 314.845215 1926.466797 315.216309 1926.828125 315.763214 1926.828125 L 319.708496 1926.828125 L 319.708496 1930.783203 C 319.708496 1931.320313 320.07959 1931.701172 320.597198 1931.701172 C 321.134308 1931.701172 321.505402 1931.330078 321.505402 1930.783203 L 321.505402 1926.828125 L 325.46051 1926.828125 C 325.997589 1926.828125 326.378387 1926.466797 326.378387 1925.949219 C 326.378387 1925.402344 326.007294 1925.03125 325.46051 1925.03125 L 321.505402 1925.03125 L 321.505402 1921.085938 C 321.505402 1920.539063 321.134308 1920.158203 320.597198 1920.158203 C 320.07959 1920.158203 319.708496 1920.539063 319.708496 1921.085938 L 319.708496 1925.03125 L 315.763214 1925.03125 C 315.216309 1925.03125 314.845215 1925.402344 314.845215 1925.949219 Z"/>
        </g>
        <text id="Design-Variations" xml:space="preserve" x="261" y="1951" font-family="Helvetica" font-size="13" font-weight="700" fill="#000000">Design Variations</text>
        <text id="Symbols-are-supported-in" xml:space="preserve" x="261" y="1969" font-family="Helvetica" font-size="13" fill="#000000">Symbols are supported in up to nine weights and three scales.</text>
        <text id="For-optimal-layout-with" xml:space="preserve" x="261" y="1987" font-family="Helvetica" font-size="13" fill="#000000">For optimal layout with text and other symbols, vertically align</text>
        <text id="symbols-with-the-adjacent" xml:space="preserve" x="261" y="2005" font-family="Helvetica" font-size="13" fill="#000000">symbols with the adjacent text.</text>
        <path id="path5" fill="none" stroke="#00aeef" stroke-width="0.5" stroke-linecap="round" stroke-linejoin="round" d="M 776 1919 L 776 1933"/>
        <g id="g3">
            <path id="path6" fill="#000000" stroke="none" d="M 779.310547 1933.15625 C 779.828125 1933.15625 780.082031 1932.960938 780.267578 1932.414063 L 781.527344 1928.966797 L 787.289124 1928.966797 L 788.548828 1932.414063 C 788.734375 1932.960938 788.988281 1933.15625 789.496094 1933.15625 C 790.013672 1933.15625 790.345703 1932.84375 790.345703 1932.355469 C 790.345703 1932.189453 790.316406 1932.033203 790.238281 1931.828125 L 785.658203 1919.630859 C 785.433594 1919.035156 785.033203 1918.732422 784.408203 1918.732422 C 783.802734 1918.732422 783.392578 1919.025391 783.177734 1919.621094 L 778.597656 1931.837891 C 778.519531 1932.042969 778.490234 1932.199219 778.490234 1932.365234 C 778.490234 1932.853516 778.802734 1933.15625 779.310547 1933.15625 Z M 782.005859 1927.482422 L 784.378906 1920.910156 L 784.427734 1920.910156 L 786.800781 1927.482422 Z"/>
        </g>
        <path id="path7" fill="none" stroke="#00aeef" stroke-width="0.5" stroke-linecap="round" stroke-linejoin="round" d="M 793.197021 1919 L 793.197021 1933"/>
        <text id="Margins" xml:space="preserve" x="774" y="1951" font-family="Helvetica" font-size="13" font-weight="700" fill="#000000">Margins</text>
        <text id="Leading-and-trailing-margins" xml:space="preserve" x="774" y="1969" font-family="Helvetica" font-size="13" fill="#000000">Leading and trailing margins on the left and right side of each symbol</text>
        <text id="can-be-adjusted-by" xml:space="preserve" x="774" y="1987" font-family="Helvetica" font-size="13" fill="#000000">can be adjusted by modifying the x-location of the margin guidelines.</text>
        <text id="Modifications-are-automatically-applied" xml:space="preserve" x="774" y="2005" font-family="Helvetica" font-size="13" fill="#000000">Modifications are automatically applied proportionally to all</text>
        <text id="scales-and-weights" xml:space="preserve" x="774" y="2023" font-family="Helvetica" font-size="13" fill="#000000">scales and weights.</text>
        <g id="g4">
            <path id="path8" fill="#000000" stroke="none" d="M 1291.841797 1934.865234 L 1293.541016 1936.574219 C 1294.400391 1937.443359 1295.386719 1937.384766 1296.314453 1936.359375 L 1307.007813 1924.572266 L 1306.041016 1923.595703 L 1295.425781 1935.275391 C 1295.074219 1935.675781 1294.742188 1935.773438 1294.273438 1935.304688 L 1293.101563 1934.142578 C 1292.632813 1933.683594 1292.740234 1933.341797 1293.140625 1932.980469 L 1304.615234 1922.179688 L 1303.638672 1921.212891 L 1292.046875 1932.101563 C 1291.060547 1933.019531 1290.982422 1933.996094 1291.841797 1934.865234 Z M 1298.257813 1916.671875 C 1297.837891 1917.082031 1297.808594 1917.658203 1298.042969 1918.048828 C 1298.277344 1918.410156 1298.736328 1918.644531 1299.380859 1918.478516 C 1300.845703 1918.136719 1302.369141 1918.078125 1303.794922 1919.015625 L 1303.208984 1920.470703 C 1302.867188 1921.300781 1303.042969 1921.886719 1303.580078 1922.433594 L 1305.875 1924.748047 C 1306.363281 1925.236328 1306.773438 1925.255859 1307.339844 1925.158203 L 1308.404297 1924.962891 L 1309.068359 1925.636719 L 1309.029297 1926.193359 C 1308.990234 1926.691406 1309.117188 1927.072266 1309.605469 1927.550781 L 1310.367188 1928.292969 C 1310.845703 1928.771484 1311.460938 1928.800781 1311.929688 1928.332031 L 1314.839844 1925.412109 C 1315.308594 1924.943359 1315.289063 1924.347656 1314.810547 1923.869141 L 1314.039063 1923.107422 C 1313.560547 1922.628906 1313.189453 1922.472656 1312.710938 1922.511719 L 1312.134766 1922.560547 L 1311.490234 1921.925781 L 1311.734375 1920.802734 C 1311.861328 1920.236328 1311.705078 1919.796875 1311.119141 1919.210938 L 1308.921875 1917.023438 C 1305.582031 1913.703125 1301.148438 1913.78125 1298.257813 1916.671875 Z M 1299.751953 1917.042969 C 1302.183594 1915.265625 1305.474609 1915.568359 1307.701172 1917.794922 L 1310.132813 1920.207031 C 1310.367188 1920.441406 1310.40625 1920.626953 1310.337891 1920.96875 L 1310.015625 1922.453125 L 1311.519531 1923.9375 L 1312.505859 1923.878906 C 1312.759766 1923.869141 1312.837891 1923.888672 1313.033203 1924.083984 L 1313.609375 1924.660156 L 1311.167969 1927.101563 L 1310.591797 1926.525391 C 1310.396484 1926.330078 1310.367188 1926.251953 1310.376953 1925.988281 L 1310.445313 1925.011719 L 1308.951172 1923.527344 L 1307.427734 1923.78125 C 1307.105469 1923.849609 1306.958984 1923.820313 1306.714844 1923.585938 L 1304.712891 1921.583984 C 1304.458984 1921.349609 1304.429688 1921.183594 1304.585938 1920.8125 L 1305.464844 1918.722656 C 1303.902344 1917.267578 1301.871094 1916.642578 1299.839844 1917.238281 C 1299.683594 1917.277344 1299.625 1917.150391 1299.751953 1917.042969 Z"/>
        </g>
        <text id="Exporting" xml:space="preserve" x="1287" y="1951" font-family="Helvetica" font-size="13" font-weight="700" fill="#000000">Exporting</text>
        <text id="Symbols-should-be-outlined" xml:space="preserve" x="1287" y="1969" font-family="Helvetica" font-size="13" fill="#000000">Symbols should be outlined when exporting to ensure the</text>
        <text id="design-is-preserved-when" xml:space="preserve" x="1287" y="1987" font-family="Helvetica" font-size="13" fill="#000000">design is preserved when submitting to Xcode.</text>
        <text id="template-version" xml:space="preserve" x="3038" y="1931" text-anchor="end" font-family="Helvetica" font-size="13" fill="#000000">Template v.3.0</text>
        <text id="Requires-Xcode-14-or" xml:space="preserve" x="3038" y="1949" text-anchor="end" font-family="Helvetica" font-size="13" fill="#000000">Requires Xcode 14 or greater</text>
        <text id="Generated-from-pills" xml:space="preserve" x="3038" y="1967" text-anchor="end" font-family="Helvetica" font-size="13" fill="#000000">Generated from pills</text>
        <text id="Typeset-at-100-points" xml:space="preserve" x="3038" y="1985" text-anchor="end" font-family="Helvetica" font-size="13" fill="#000000">Typeset at 100 points</text>
        <text id="Small" xml:space="preserve" x="261" y="724" font-family="Helvetica" font-size="13" fill="#000000">Small</text>
        <text id="text1" xml:space="preserve" x="261" y="1154" font-family="Helvetica" font-size="13" fill="#000000">Medium</text>
        <text id="Large" xml:space="preserve" x="261" y="1584" font-family="Helvetica" font-size="13" fill="#000000">Large</text>
    </g>
    <g id="Guides">
        <g id="H-reference">
            <path id="path9" fill="#27aae1" stroke="none" d="M 339.993652 696 L 342.637756 696 L 368.328094 628.867676 L 369.030304 628.867676 L 369.030304 625.541016 L 367.122589 625.541016 Z M 350.688507 671.520142 L 385.981506 671.520142 L 385.231506 669.271484 L 351.438507 669.271484 Z M 394.119598 696 L 396.763702 696 L 369.638214 625.541016 L 368.432587 625.541016 L 368.432587 628.867676 Z"/>
        </g>
        <path id="Baseline-S" fill="none" stroke="#27aae1" stroke-width="0.5" stroke-linecap="round" stroke-linejoin="round" d="M 263 696 L 3036 696"/>
        <path id="Capline-S" fill="none" stroke="#27aae1" stroke-width="0.5" stroke-linecap="round" stroke-linejoin="round" d="M 263 625.541016 L 3036 625.541016"/>
        <g id="g5">
            <path id="path10" fill="#27aae1" stroke="none" d="M 339.993652 1126 L 342.637756 1126 L 368.328094 1058.867676 L 369.030304 1058.867676 L 369.030304 1055.541016 L 367.122589 1055.541016 Z M 350.688507 1101.520142 L 385.981506 1101.520142 L 385.231506 1099.271484 L 351.438507 1099.271484 Z M 394.119598 1126 L 396.763702 1126 L 369.638214 1055.541016 L 368.432587 1055.541016 L 368.432587 1058.867676 Z"/>
        </g>
        <path id="Baseline-M" fill="none" stroke="#27aae1" stroke-width="0.5" stroke-linecap="round" stroke-linejoin="round" d="M 263 1126 L 3036 1126"/>
        <path id="Capline-M" fill="none" stroke="#27aae1" stroke-width="0.5" stroke-linecap="round" stroke-linejoin="round" d="M 263 1055.540039 L 3036 1055.540039"/>
        <g id="g6">
            <path id="path11" fill="#27aae1" stroke="none" d="M 339.993652 1556 L 342.637756 1556 L 368.328094 1488.867676 L 369.030304 1488.867676 L 369.030304 1485.541016 L 367.122589 1485.541016 Z M 350.688507 1531.52002 L 385.981506 1531.52002 L 385.231506 1529.271484 L 351.438507 1529.271484 Z M 394.119598 1556 L 396.763702 1556 L 369.638214 1485.541016 L 368.432587 1485.541016 L 368.432587 1488.867676 Z"/>
        </g>
        <path id="Baseline-L" fill="none" stroke="#27aae1" stroke-width="0.5" stroke-linecap="round" stroke-linejoin="round" d="M 263 1556 L 3036 1556"/>
        <path id="Capline-L" fill="none" stroke="#27aae1" stroke-width="0.5" stroke-linecap="round" stroke-linejoin="round" d="M 263 1485.540039 L 3036 1485.540039"/>
        <path id="left-margin-Regular-M" fill="none" stroke="#00aeef" stroke-width="0.5" stroke-linecap="round" stroke-linejoin="round" d="M 1380.859985 1030.790039 L 1380.859985 1150.119995"/>
        <path id="right-margin-Regular-M" fill="none" stroke="#00aeef" stroke-width="0.5" stroke-linecap="round" stroke-linejoin="round" d="M 1518.829956 1030.790039 L 1518.829956 1150.119995"/>
    </g>
    <g id="Symbols">
        <g id="Black-L">
            <path id="path12" fill="#000000" stroke="none" d="M 2859.737793 1554.109009 C 2873.769043 1568.059814 2892.696289 1568.119507 2906.684814 1554.130981 L 2953.649902 1507.165771 C 2967.52002 1493.295288 2967.519043 1474.030762 2953.570068 1460.161499 C 2939.538086 1446.210938 2920.611084 1446.151001 2906.622559 1460.139526 L 2859.657227 1507.104736 C 2845.786865 1520.97522 2845.788086 1540.239746 2859.737793 1554.109009 Z M 2874.355957 1539.433472 C 2868.903564 1533.921631 2869.086426 1526.830322 2874.918945 1520.998047 L 2920.516846 1475.399902 C 2926.406494 1469.510254 2933.500244 1469.326172 2938.950928 1474.836914 C 2944.404053 1480.348877 2944.220947 1487.440186 2938.387939 1493.272461 L 2892.790283 1538.870605 C 2886.900635 1544.760254 2879.806885 1544.944336 2874.355957 1539.433472 Z M 2881.226807 1496.303955 L 2917.485596 1532.562744 L 2932.160889 1517.886108 L 2895.9021 1481.627319 Z M 2977.916016 1595.588867 C 2999.853027 1595.588867 3017.551025 1577.83313 3017.551025 1555.894775 C 3017.551025 1534.13916 2999.772949 1516.361328 2977.916016 1516.361328 C 2956.138916 1516.361328 2938.302002 1534.13916 2938.302002 1555.894775 C 2938.302002 1577.773438 2956.058105 1595.588867 2977.916016 1595.588867 Z M 2977.916016 1575.549561 C 2967.072998 1575.549561 2958.281982 1566.796387 2958.281982 1555.894775 C 2958.281982 1545.153931 2967.094971 1536.342407 2977.916016 1536.342407 C 2988.737061 1536.342407 2997.571045 1545.153931 2997.571045 1555.894775 C 2997.571045 1566.818359 2988.818115 1575.549561 2977.916016 1575.549561 Z M 2947.326904 1565.439941 L 3008.446045 1565.439941 L 3008.446045 1546.37146 L 2947.326904 1546.37146 Z"/>
        </g>
        <g id="Heavy-L">
            <path id="path13" fill="#000000" stroke="none" d="M 2565.120117 1553.720703 C 2578.64502 1567.165283 2596.760498 1567.215576 2610.219482 1553.756348 L 2657.185059 1506.79126 C 2670.549072 1493.427002 2670.542969 1475.01123 2657.104004 1461.652588 C 2643.579102 1448.208008 2625.463867 1448.157959 2612.004883 1461.616821 L 2565.039551 1508.582031 C 2551.675293 1521.946289 2551.680908 1540.362061 2565.120117 1553.720703 Z M 2577.890625 1540.910889 C 2571.918457 1534.888184 2572.11499 1526.962158 2578.453613 1520.623413 L 2624.051758 1475.025269 C 2630.429443 1468.647583 2638.366699 1468.445313 2644.333984 1474.462402 C 2650.305908 1480.484985 2650.108887 1488.411133 2643.770996 1494.749756 L 2598.172607 1540.3479 C 2591.794922 1546.725586 2583.857422 1546.927734 2577.890625 1540.910889 Z M 2587.251221 1496.557861 L 2622.243896 1531.550415 L 2635.053467 1518.734985 L 2600.061035 1483.742432 Z M 2680.039063 1593.736328 C 2701.250977 1593.736328 2718.360107 1576.582764 2718.360107 1555.365234 C 2718.360107 1534.344238 2701.170898 1517.154785 2680.039063 1517.154785 C 2658.981934 1517.154785 2641.748047 1534.344238 2641.748047 1555.365234 C 2641.748047 1576.532593 2658.9021 1593.736328 2680.039063 1593.736328 Z M 2680.039063 1576.191406 C 2668.543945 1576.191406 2659.24292 1566.905029 2659.24292 1555.365234 C 2659.24292 1543.986328 2668.580078 1534.655273 2680.039063 1534.655273 C 2691.499023 1534.655273 2700.86499 1543.986328 2700.86499 1555.365234 C 2700.86499 1566.940796 2691.579102 1576.191406 2680.039063 1576.191406 Z M 2649.879883 1563.794189 L 2710.147949 1563.794189 L 2710.147949 1546.971924 L 2649.879883 1546.971924 Z"/>
        </g>
        <g id="Bold-L">
            <path id="path14" fill="#000000" stroke="none" d="M 2271.103516 1553.184448 C 2284.006104 1566.00647 2301.122314 1566.049072 2313.935547 1553.235596 L 2360.900879 1506.270386 C 2373.643066 1493.528809 2373.628906 1476.150635 2360.820068 1463.422363 C 2347.917969 1450.599976 2330.801514 1450.557983 2317.988281 1463.371094 L 2271.022949 1510.336304 C 2258.281494 1523.078003 2258.294678 1540.456055 2271.103516 1553.184448 Z M 2281.606689 1542.665039 C 2274.996582 1536.012451 2275.208496 1527.063965 2282.169678 1520.102783 L 2327.767822 1474.504639 C 2334.745117 1467.527344 2343.719971 1467.302124 2350.316895 1473.94165 C 2356.927002 1480.594482 2356.715088 1489.542969 2349.753906 1496.50415 L 2304.156006 1542.102173 C 2297.178955 1549.079346 2288.203857 1549.304688 2281.606689 1542.665039 Z M 2293.899658 1496.686523 L 2327.585449 1530.372314 L 2338.104736 1519.839844 L 2304.418945 1486.154053 Z M 2381.780029 1591.67749 C 2402.100098 1591.67749 2418.487061 1575.261719 2418.487061 1554.928101 C 2418.487061 1534.806519 2402.02002 1518.3396 2381.780029 1518.3396 C 2361.606934 1518.3396 2345.11084 1534.806519 2345.11084 1554.928101 C 2345.11084 1575.219482 2361.5271 1591.67749 2381.780029 1591.67749 Z M 2381.780029 1577.206543 C 2369.478027 1577.206543 2359.539063 1567.259277 2359.539063 1554.928101 C 2359.539063 1542.757813 2369.529053 1532.78125 2381.780029 1532.78125 C 2394.031006 1532.78125 2404.058105 1542.757813 2404.058105 1554.928101 C 2404.058105 1567.310547 2394.111084 1577.206543 2381.780029 1577.206543 Z M 2352.061035 1561.966553 L 2411.456055 1561.966553 L 2411.456055 1547.940918 L 2352.061035 1547.940918 Z"/>
        </g>
        <g id="Semibold-L">
            <path id="path15" fill="#000000" stroke="none" d="M 1976.244873 1552.814819 C 1988.718262 1565.207764 2005.145752 1565.244873 2017.514038 1552.876709 L 2064.479004 1505.911377 C 2076.791992 1493.598877 2076.772949 1476.936279 2064.398926 1464.642334 C 2051.925293 1452.249023 2035.497925 1452.211914 2023.129761 1464.580566 L 1976.164551 1511.545654 C 1963.852051 1523.858154 1963.870483 1540.520752 1976.244873 1552.814819 Z M 1985.185059 1543.874512 C 1978.13501 1536.787354 1978.357666 1527.134033 1985.748047 1519.743652 L 2031.346191 1474.14563 C 2038.736694 1466.755127 2048.427002 1466.513916 2055.458984 1473.58252 C 2062.509033 1480.6698 2062.285889 1490.32312 2054.895996 1497.713501 L 2009.297485 1543.311523 C 2001.907104 1550.702148 1992.216797 1550.943237 1985.185059 1543.874512 Z M 1999.49939 1496.775269 L 2032.284424 1529.560303 L 2041.224731 1520.601563 L 2008.439697 1487.816528 Z M 2083.996094 1590.258057 C 2103.701904 1590.258057 2119.591064 1574.351074 2119.591064 1554.626709 C 2119.591064 1535.125122 2103.62207 1519.15625 2083.996094 1519.15625 C 2064.433105 1519.15625 2048.445557 1535.125122 2048.445557 1554.626709 C 2048.445557 1574.313965 2064.352051 1590.258057 2083.996094 1590.258057 Z M 2083.996094 1577.90625 C 2071.137939 1577.90625 2060.76001 1567.503418 2060.76001 1554.626709 C 2060.76001 1541.910889 2071.199951 1531.489502 2083.996094 1531.489502 C 2096.792969 1531.489502 2107.275879 1541.910889 2107.275879 1554.626709 C 2107.275879 1567.56543 2096.873047 1577.90625 2083.996094 1577.90625 Z M 2054.582031 1560.706543 L 2113.374023 1560.706543 L 2113.374023 1548.608765 L 2054.582031 1548.608765 Z"/>
        </g>
        <g id="Medium-L">
            <path id="path16" fill="#000000" stroke="none" d="M 1680.935913 1552.534546 C 1693.083862 1564.602051 1708.989136 1564.63501 1721.019653 1552.604492 L 1767.984985 1505.63916 C 1779.972046 1493.652222 1779.948975 1477.531982 1767.904053 1465.567383 C 1755.75647 1453.5 1739.851196 1453.467041 1727.820679 1465.497559 L 1680.855347 1512.462646 C 1668.868408 1524.449829 1668.890747 1540.569824 1680.935913 1552.534546 Z M 1688.690796 1544.791504 C 1681.307251 1537.375 1681.537964 1527.187256 1689.253784 1519.471436 L 1734.851929 1473.873413 C 1742.555664 1466.169434 1752.78833 1465.91626 1760.149048 1473.310425 C 1767.532959 1480.727051 1767.302002 1490.914673 1759.587036 1498.630493 L 1713.988403 1544.228516 C 1706.284546 1551.932373 1696.052002 1552.185669 1688.690796 1544.791504 Z M 1704.537842 1496.842529 L 1736.639771 1528.94458 L 1744.382813 1521.178955 L 1712.280884 1489.077148 Z M 1786.468994 1589.181885 C 1805.708984 1589.181885 1821.219971 1573.660522 1821.219971 1554.398193 C 1821.219971 1535.366821 1805.629028 1519.775635 1786.468994 1519.775635 C 1767.368042 1519.775635 1751.766357 1535.366821 1751.766357 1554.398193 C 1751.766357 1573.627686 1767.287964 1589.181885 1786.468994 1589.181885 Z M 1786.468994 1578.437012 C 1773.188965 1578.437012 1762.478027 1567.688721 1762.478027 1554.398193 C 1762.478027 1541.268555 1773.259033 1530.509888 1786.468994 1530.509888 C 1799.678955 1530.509888 1810.508057 1541.268555 1810.508057 1554.398193 C 1810.508057 1567.758789 1799.76001 1578.437012 1786.468994 1578.437012 Z M 1757.285278 1559.751221 L 1815.620972 1559.751221 L 1815.620972 1549.115234 L 1757.285278 1549.115234 Z"/>
        </g>
        <g id="Regular-L">
            <path id="path17" fill="#000000" stroke="none" d="M 1386.061035 1552.168945 C 1397.784424 1563.812012 1413.008545 1563.8396 1424.598755 1552.24939 L 1471.563965 1505.28418 C 1483.126953 1493.72168 1483.098999 1478.309082 1471.484009 1466.773926 C 1459.760132 1455.130981 1444.536011 1455.103027 1432.945801 1466.693604 L 1385.980469 1513.658813 C 1374.417847 1525.221436 1374.445557 1540.634033 1386.061035 1552.168945 Z M 1392.27002 1545.987549 C 1384.451416 1538.141357 1384.692627 1527.256714 1392.832886 1519.116455 L 1438.43103 1473.518311 C 1446.543579 1465.405762 1457.483643 1465.136719 1465.275024 1472.955322 C 1473.093018 1480.801514 1472.852051 1491.686279 1464.712036 1499.82666 L 1419.113525 1545.424683 C 1411.000854 1553.537354 1400.060913 1553.806152 1392.27002 1545.987549 Z M 1410.116333 1496.930298 L 1441.327271 1528.141357 L 1447.508545 1521.932373 L 1416.297729 1490.721313 Z M 1488.702026 1587.778076 C 1507.333984 1587.778076 1522.352051 1572.759766 1522.352051 1554.10022 C 1522.352051 1535.681885 1507.253052 1520.583374 1488.702026 1520.583374 C 1470.203003 1520.583374 1455.10437 1535.681885 1455.10437 1554.10022 C 1455.10437 1572.732178 1470.123047 1587.778076 1488.702026 1587.778076 Z M 1488.702026 1579.12915 C 1474.871948 1579.12915 1463.725952 1567.930298 1463.725952 1554.10022 C 1463.725952 1540.43103 1474.952026 1529.2323 1488.702026 1529.2323 C 1502.45105 1529.2323 1513.730957 1540.43103 1513.730957 1554.10022 C 1513.730957 1568.010742 1502.531982 1579.12915 1488.702026 1579.12915 Z M 1459.818237 1558.505127 L 1517.557983 1558.505127 L 1517.557983 1549.775879 L 1459.818237 1549.775879 Z"/>
        </g>
        <g id="Light-L">
            <path id="path18" fill="#000000" stroke="none" d="M 1091.845581 1551.443726 C 1103.168335 1562.686035 1117.743408 1562.732666 1128.952026 1551.52417 L 1175.916992 1504.558838 C 1187.078979 1493.397095 1187.031982 1478.61438 1175.837036 1467.499268 C 1164.51416 1456.25708 1149.938965 1456.210327 1138.730347 1467.418823 L 1091.765259 1514.384033 C 1080.603271 1525.545898 1080.650146 1540.328613 1091.845581 1551.443726 Z M 1096.623169 1546.712891 C 1088.403809 1538.446777 1088.645142 1526.932129 1097.186157 1518.391113 L 1142.78418 1472.793091 C 1151.278442 1464.298828 1162.886597 1464.010742 1171.05896 1472.230103 C 1179.279053 1480.496216 1179.036987 1492.010742 1170.495972 1500.55188 L 1124.898193 1546.149902 C 1116.403931 1554.644287 1104.795776 1554.932251 1096.623169 1546.712891 Z M 1115.519165 1495.823486 L 1147.512695 1527.816772 L 1152.243652 1523.039185 L 1120.250122 1491.045776 Z M 1190.22998 1587.873413 C 1208.290039 1587.873413 1222.849976 1573.313232 1222.849976 1555.207275 C 1222.849976 1537.342407 1208.208984 1522.701904 1190.22998 1522.701904 C 1172.285034 1522.701904 1157.644531 1537.342407 1157.644531 1555.207275 C 1157.644531 1573.266602 1172.204956 1587.873413 1190.22998 1587.873413 Z M 1190.22998 1581.247559 C 1175.847046 1581.247559 1164.223633 1569.590698 1164.223633 1555.207275 C 1164.223633 1540.984497 1175.927002 1529.327637 1190.22998 1529.327637 C 1204.532959 1529.327637 1216.270996 1540.984497 1216.270996 1555.207275 C 1216.270996 1569.671143 1204.614014 1581.247559 1190.22998 1581.247559 Z M 1161.060547 1558.600586 L 1219.353027 1558.600586 L 1219.353027 1551.894287 L 1161.060547 1551.894287 Z"/>
        </g>
        <g id="Thin-L">
            <path id="path19" fill="#000000" stroke="none" d="M 798.423706 1550.484619 C 809.216309 1561.196777 822.933289 1561.268799 833.637024 1550.564941 L 880.60199 1503.599731 C 891.234009 1492.968018 891.161987 1479.018188 880.521973 1468.458496 C 869.729187 1457.746338 856.012329 1457.674316 845.308533 1468.37793 L 798.343323 1515.343262 C 787.711487 1525.974976 787.783508 1539.924805 798.423706 1550.484619 Z M 801.308228 1547.672119 C 792.558716 1538.850586 792.799988 1526.503174 801.871094 1517.432007 L 847.469177 1471.833984 C 856.468384 1462.834717 868.9599 1462.521484 877.637024 1471.270874 C 886.387024 1480.092407 886.145996 1492.439941 877.073975 1501.510986 L 831.476318 1547.109131 C 822.477173 1556.108276 809.985718 1556.421509 801.308228 1547.672119 Z M 821.592529 1494.359375 L 854.620911 1527.387695 L 857.433411 1524.503296 L 824.405029 1491.474854 Z M 891.179016 1587.999512 C 908.481995 1587.999512 922.435974 1574.045288 922.435974 1556.671143 C 922.435974 1539.53833 908.401001 1525.503662 891.179016 1525.503662 C 873.966187 1525.503662 859.931519 1539.53833 859.931519 1556.671143 C 859.931519 1573.973389 873.885803 1587.999512 891.179016 1587.999512 Z M 891.179016 1584.049316 C 876.064026 1584.049316 863.809814 1571.786865 863.809814 1556.671143 C 863.809814 1541.716553 876.143982 1529.453857 891.179016 1529.453857 C 906.215027 1529.453857 918.557983 1541.716553 918.557983 1556.671143 C 918.557983 1571.867188 906.294983 1584.049316 891.179016 1584.049316 Z M 861.631104 1558.726807 L 920.656006 1558.726807 L 920.656006 1554.696045 L 861.631104 1554.696045 Z"/>
        </g>
        <g id="Ultralight-L">
            <path id="path20" fill="#000000" stroke="none" d="M 503.399902 1549.993286 C 513.920898 1560.43396 527.198303 1560.518799 537.643494 1550.07373 L 584.609009 1503.108521 C 594.968994 1492.748169 594.883972 1479.225098 584.528015 1468.949707 C 574.007202 1458.509033 560.729797 1458.424194 550.284729 1468.869385 L 503.319397 1515.834595 C 492.959198 1526.194824 493.044098 1539.717896 503.399902 1549.993286 Z M 505.314697 1548.16333 C 496.293701 1539.057495 496.535004 1526.283325 505.877594 1516.940674 L 551.475708 1471.342529 C 560.733398 1462.084961 573.677429 1461.758667 582.612976 1470.779541 C 591.633972 1479.885498 591.393005 1492.659668 582.051025 1502.002319 L 536.452393 1547.600342 C 527.194702 1556.858154 514.250671 1557.184326 505.314697 1548.16333 Z M 526.31012 1493.609497 L 559.868591 1527.167969 L 561.698486 1525.253174 L 528.140015 1491.694702 Z M 593.27301 1588.064209 C 610.187012 1588.064209 623.830994 1574.420288 623.830994 1557.421143 C 623.830994 1540.663208 610.106018 1526.938721 593.27301 1526.938721 C 576.434204 1526.938721 562.709778 1540.663208 562.709778 1557.421143 C 562.709778 1574.335327 576.353821 1588.064209 593.27301 1588.064209 Z M 593.27301 1585.484497 C 577.781982 1585.484497 565.20459 1572.911621 565.20459 1557.421143 C 565.20459 1542.091431 577.862488 1529.518555 593.27301 1529.518555 C 608.682983 1529.518555 621.335999 1542.091431 621.335999 1557.421143 C 621.335999 1572.991943 608.763 1585.484497 593.27301 1585.484497 Z M 563.530212 1558.791382 L 622.929993 1558.791382 L 622.929993 1556.131226 L 563.530212 1556.131226 Z"/>
        </g>
        <g id="Black-M">
            <path id="path21" fill="#000000" stroke="none" d="M 2874.875244 1116.834717 C 2886.126709 1128.023926 2901.400391 1128.080688 2912.641113 1116.839966 L 2949.0271 1080.453979 C 2960.154053 1069.327148 2960.154053 1053.758057 2948.9646 1042.630859 C 2937.713135 1031.441772 2922.439697 1031.38501 2911.198975 1042.625732 L 2874.812988 1079.011719 C 2863.686279 1090.13855 2863.685791 1105.707642 2874.875244 1116.834717 Z M 2887.594482 1104.058228 C 2883.762939 1100.169922 2883.892822 1095.308228 2888.030762 1091.17041 L 2923.357422 1055.84375 C 2927.55249 1051.648438 2932.413818 1051.518921 2936.245361 1055.407471 C 2940.076904 1059.295776 2939.947021 1064.157471 2935.809326 1068.295288 L 2900.482422 1103.621948 C 2896.287354 1107.817139 2891.42627 1107.946655 2887.594482 1104.058228 Z M 2890.920166 1071.447144 L 2920.205566 1100.732544 L 2932.982178 1087.956299 L 2903.696777 1058.670776 Z M 2968.657959 1150.340454 C 2986.198975 1150.340454 3000.354004 1136.128906 3000.354004 1118.587769 C 3000.354004 1101.176514 2986.136963 1086.959595 2968.657959 1086.959595 C 2951.241211 1086.959595 2936.967041 1101.176514 2936.967041 1118.587769 C 2936.967041 1136.072144 2951.178711 1150.340454 2968.657959 1150.340454 Z M 2968.657959 1132.945557 C 2960.741943 1132.945557 2954.30542 1126.560425 2954.30542 1118.587769 C 2954.30542 1110.739746 2960.74707 1104.297607 2968.657959 1104.297607 C 2976.568115 1104.297607 2983.014893 1110.739746 2983.014893 1118.587769 C 2983.014893 1126.565552 2976.629883 1132.945557 2968.657959 1132.945557 Z M 2944.550537 1126.805176 L 2992.708008 1126.805176 L 2992.708008 1110.37561 L 2944.550537 1110.37561 Z"/>
        </g>
        <g id="Heavy-M">
            <path id="path22" fill="#000000" stroke="none" d="M 2579.974609 1116.521973 C 2590.768066 1127.253174 2605.307861 1127.299072 2616.066162 1116.540649 L 2652.452148 1080.154663 C 2663.121094 1069.48584 2663.118896 1054.688354 2652.389893 1044.021729 C 2641.596191 1033.290527 2627.056641 1033.244629 2616.298096 1044.003052 L 2579.912109 1080.388916 C 2569.243164 1091.057861 2569.245605 1105.855347 2579.974609 1116.521973 Z M 2591.019775 1105.435425 C 2586.716797 1101.086548 2586.860107 1095.466919 2591.455811 1090.871094 L 2626.782715 1055.544434 C 2631.419678 1050.907349 2637.043945 1050.761719 2641.344482 1055.108276 C 2645.647461 1059.457031 2645.50415 1065.076782 2640.908447 1069.672485 L 2605.581787 1104.999268 C 2600.94458 1109.636353 2595.320313 1109.78186 2591.019775 1105.435425 Z M 2596.682373 1071.797363 L 2624.657715 1099.772827 L 2635.744385 1088.68396 L 2607.768799 1060.708496 Z M 2670.962891 1148.520752 C 2687.8479 1148.520752 2701.469971 1134.855591 2701.469971 1117.968018 C 2701.469971 1101.223755 2687.785889 1087.539917 2670.962891 1087.539917 C 2654.200195 1087.539917 2640.4729 1101.223755 2640.4729 1117.968018 C 2640.4729 1134.809692 2654.137939 1148.520752 2670.962891 1148.520752 Z M 2670.962891 1133.377563 C 2662.461914 1133.377563 2655.570068 1126.513306 2655.570068 1117.968018 C 2655.570068 1109.547241 2662.47998 1102.639526 2670.962891 1102.639526 C 2679.446045 1102.639526 2686.373047 1109.547241 2686.373047 1117.968018 C 2686.373047 1126.531982 2679.509033 1133.377563 2670.962891 1133.377563 Z M 2647.302979 1125.1875 L 2694.577881 1125.1875 L 2694.577881 1110.767212 L 2647.302979 1110.767212 Z"/>
        </g>
        <g id="Bold-M">
            <path id="path23" fill="#000000" stroke="none" d="M 2285.291992 1116.172119 C 2295.573242 1126.391113 2309.292236 1126.424805 2319.51123 1116.205933 L 2355.897217 1079.819946 C 2366.053711 1069.66333 2366.048584 1055.728882 2355.834717 1045.577393 C 2345.553467 1035.358521 2331.834473 1035.324829 2321.615723 1045.543701 L 2285.229736 1081.929565 C 2275.072998 1092.086182 2275.078125 1106.02063 2285.291992 1116.172119 Z M 2294.4646 1106.976074 C 2289.634521 1102.112183 2289.792725 1095.644409 2294.900879 1090.536377 L 2330.227539 1055.209595 C 2335.358887 1050.078247 2341.837158 1049.914673 2346.662109 1054.773438 C 2351.492432 1059.637451 2351.333984 1066.105225 2346.226074 1071.213257 L 2310.899414 1106.539917 C 2305.767822 1111.671387 2299.289795 1111.834961 2294.4646 1106.976074 Z M 2302.741455 1072.189209 L 2329.251465 1098.699219 L 2338.44751 1089.498047 L 2311.9375 1062.988037 Z M 2373.156006 1146.485107 C 2389.306885 1146.485107 2402.333008 1133.431152 2402.333008 1117.27478 C 2402.333008 1101.276733 2389.245117 1088.188965 2373.156006 1088.188965 C 2357.124023 1088.188965 2344.007813 1101.276733 2344.007813 1117.27478 C 2344.007813 1133.397461 2357.061768 1146.485107 2373.156006 1146.485107 Z M 2373.156006 1133.86084 C 2363.998291 1133.86084 2356.598389 1126.460693 2356.598389 1117.27478 C 2356.598389 1108.213379 2364.032227 1100.784668 2373.156006 1100.784668 C 2382.280029 1100.784668 2389.741943 1108.213379 2389.741943 1117.27478 C 2389.741943 1126.494385 2382.342041 1133.86084 2373.156006 1133.86084 Z M 2349.995361 1123.37793 L 2396.282959 1123.37793 L 2396.282959 1111.205322 L 2349.995361 1111.205322 Z"/>
        </g>
        <g id="Semibold-M">
            <path id="path24" fill="#000000" stroke="none" d="M 1989.981445 1115.930908 C 1999.909546 1125.796753 2013.062744 1125.822021 2022.909668 1115.975098 L 2059.295654 1079.589111 C 2069.099121 1069.785645 2069.092041 1056.446289 2059.233398 1046.649902 C 2049.305176 1036.784058 2036.151978 1036.758911 2026.305054 1046.605835 L 1989.919189 1082.991699 C 1980.115723 1092.795166 1980.122803 1106.134644 1989.981445 1115.930908 Z M 1997.863159 1108.038208 C 1992.669434 1102.819214 1992.838135 1095.766724 1998.299316 1090.305542 L 2033.626099 1054.97876 C 2039.098267 1049.506592 2046.164917 1049.330688 2051.351563 1054.542725 C 2056.54541 1059.761719 2056.376709 1066.814209 2050.915527 1072.275269 L 2015.588745 1107.602051 C 2010.116455 1113.074341 2003.049805 1113.250244 1997.863159 1108.038208 Z M 2007.942261 1072.459351 L 2033.442017 1097.959106 L 2041.334839 1090.059204 L 2015.834961 1064.559448 Z M 2075.690918 1145.081665 C 2091.335938 1145.081665 2103.950928 1132.449219 2103.950928 1116.796753 C 2103.950928 1101.31311 2091.273926 1088.636475 2075.690918 1088.636475 C 2060.163086 1088.636475 2047.468384 1101.31311 2047.468384 1116.796753 C 2047.468384 1132.42395 2060.10083 1145.081665 2075.690918 1145.081665 Z M 2075.690918 1134.19397 C 2066.081543 1134.19397 2058.330811 1126.424438 2058.330811 1116.796753 C 2058.330811 1107.293701 2066.125732 1099.505981 2075.690918 1099.505981 C 2085.256104 1099.505981 2093.087891 1107.293701 2093.087891 1116.796753 C 2093.087891 1126.468506 2085.319092 1134.19397 2075.690918 1134.19397 Z M 2052.875 1122.130371 L 2098.481934 1122.130371 L 2098.481934 1111.507324 L 2052.875 1111.507324 Z"/>
        </g>
        <g id="Medium-M">
            <path id="path25" fill="#000000" stroke="none" d="M 1694.336304 1115.748047 C 1703.996704 1125.346069 1716.720825 1125.36499 1726.285645 1115.800049 L 1762.671631 1079.414063 C 1772.207275 1069.878418 1772.19873 1056.990356 1762.609253 1047.463257 C 1752.948975 1037.865112 1740.224854 1037.846313 1730.660034 1047.411133 L 1694.274048 1083.797119 C 1684.738281 1093.332764 1684.746948 1106.220947 1694.336304 1115.748047 Z M 1701.239258 1108.843628 C 1695.769653 1103.355225 1695.946411 1095.859497 1701.675293 1090.130493 L 1737.002075 1054.803833 C 1742.732666 1049.073242 1750.245605 1048.887939 1755.706543 1054.367676 C 1761.175903 1059.855957 1760.999268 1067.351685 1755.270264 1073.080688 L 1719.943604 1108.407349 C 1714.213013 1114.137939 1706.699951 1114.323242 1701.239258 1108.843628 Z M 1712.684937 1072.664063 L 1737.418579 1097.397949 L 1744.32312 1090.484741 L 1719.589355 1065.750977 Z M 1778.411987 1144.017578 C 1793.67395 1144.017578 1805.977051 1131.70459 1805.977051 1116.434326 C 1805.977051 1101.34082 1793.612061 1088.97583 1778.411987 1088.97583 C 1763.266724 1088.97583 1750.891357 1101.34082 1750.891357 1116.434326 C 1750.891357 1131.685669 1763.204346 1144.017578 1778.411987 1144.017578 Z M 1778.411987 1134.446655 C 1768.460083 1134.446655 1760.443481 1126.396851 1760.443481 1116.434326 C 1760.443481 1106.596558 1768.512085 1098.536377 1778.411987 1098.536377 C 1788.312988 1098.536377 1796.425049 1106.596558 1796.425049 1116.434326 C 1796.425049 1126.448975 1788.375 1134.446655 1778.411987 1134.446655 Z M 1755.857544 1121.18457 L 1800.947998 1121.18457 L 1800.947998 1111.736328 L 1755.857544 1111.736328 Z"/>
        </g>
        <g id="Regular-M">
            <path id="path26" fill="#000000" stroke="none" d="M 1399.008789 1115.509521 C 1408.319824 1124.758301 1420.484253 1124.768799 1429.681274 1115.571777 L 1466.067139 1079.185913 C 1475.253662 1069.99939 1475.243042 1057.699829 1466.004883 1048.523926 C 1456.693848 1039.275146 1444.529419 1039.264648 1435.332397 1048.461548 L 1398.946533 1084.847534 C 1389.76001 1094.034058 1389.77063 1106.333618 1399.008789 1115.509521 Z M 1404.634766 1109.894043 C 1398.805786 1104.054443 1398.992676 1095.980469 1405.070923 1089.902344 L 1440.397705 1054.575439 C 1446.465454 1048.507935 1454.560425 1048.310425 1460.378906 1054.139404 C 1466.207886 1059.978882 1466.020996 1068.052856 1459.942749 1074.131104 L 1424.615967 1109.457886 C 1418.54834 1115.525513 1410.453247 1115.723022 1404.634766 1109.894043 Z M 1417.863037 1072.931274 L 1441.597534 1096.665771 L 1447.213013 1091.039795 L 1423.478516 1067.305176 Z M 1480.953979 1142.629639 C 1495.714966 1142.629639 1507.611938 1130.733398 1507.611938 1115.96167 C 1507.611938 1101.376831 1495.652954 1089.418335 1480.953979 1089.418335 C 1466.307007 1089.418335 1454.348511 1101.376831 1454.348511 1115.96167 C 1454.348511 1130.7229 1466.244751 1142.629639 1480.953979 1142.629639 Z M 1480.953979 1134.776123 C 1470.55481 1134.776123 1462.191406 1126.360962 1462.191406 1115.96167 C 1462.191406 1105.68689 1470.617065 1097.271851 1480.953979 1097.271851 C 1491.291016 1097.271851 1499.769043 1105.68689 1499.769043 1115.96167 C 1499.769043 1126.42334 1491.353027 1134.776123 1480.953979 1134.776123 Z M 1458.73999 1119.950684 L 1503.157959 1119.950684 L 1503.157959 1112.034912 L 1458.73999 1112.034912 Z"/>
        </g>
        <g id="Light-M">
            <path id="path27" fill="#000000" stroke="none" d="M 1104.535034 1114.859253 C 1113.486694 1123.748657 1125.069458 1123.776367 1133.924194 1114.921631 L 1170.310059 1078.535645 C 1179.137207 1069.708618 1179.109619 1057.973511 1170.247803 1049.174072 C 1161.296143 1040.284668 1149.713379 1040.256958 1140.858643 1049.111816 L 1104.472656 1085.497681 C 1095.64563 1094.324829 1095.673218 1106.059814 1104.535034 1114.859253 Z M 1108.877686 1110.544189 C 1102.689453 1104.328247 1102.876343 1095.689575 1109.313843 1089.252075 L 1144.640625 1053.925293 C 1151.050537 1047.515381 1159.744385 1047.300903 1165.905151 1053.489258 C 1172.093384 1059.7052 1171.906494 1068.34375 1165.468994 1074.78125 L 1130.142212 1110.108154 C 1123.7323 1116.517944 1115.038452 1116.732544 1108.877686 1110.544189 Z M 1123.046997 1071.938843 L 1147.483154 1096.375 L 1151.798096 1092.032227 L 1127.362061 1067.596069 Z M 1182.664551 1142.71521 C 1196.911987 1142.71521 1208.397949 1131.229614 1208.397949 1116.954102 C 1208.397949 1102.865479 1196.849976 1091.317627 1182.664551 1091.317627 C 1168.513672 1091.317627 1156.96582 1102.865479 1156.96582 1116.954102 C 1156.96582 1131.202026 1168.451416 1142.71521 1182.664551 1142.71521 Z M 1182.664551 1136.675537 C 1171.769043 1136.675537 1162.977905 1127.849609 1162.977905 1116.954102 C 1162.977905 1106.183228 1171.831421 1097.357422 1182.664551 1097.357422 C 1193.498047 1097.357422 1202.385986 1106.183228 1202.385986 1116.954102 C 1202.385986 1127.911987 1193.560059 1136.675537 1182.664551 1136.675537 Z M 1160.193848 1120.036255 L 1205.108032 1120.036255 L 1205.108032 1113.934204 L 1160.193848 1113.934204 Z"/>
        </g>
        <g id="Thin-M">
            <path id="path28" fill="#000000" stroke="none" d="M 810.773926 1113.999268 C 819.250427 1122.413452 830.063721 1122.463745 838.46582 1114.061646 L 874.851807 1077.675659 C 883.203613 1069.323853 883.15332 1058.335571 874.78949 1050.034058 C 866.312988 1041.619873 855.499695 1041.56958 847.097473 1049.971802 L 810.711609 1086.357666 C 802.359741 1094.709595 802.410034 1105.697754 810.773926 1113.999268 Z M 813.419312 1111.404175 C 806.755798 1104.690308 806.942688 1095.304932 813.85553 1088.39209 L 849.18219 1053.065308 C 856.044678 1046.202881 865.530701 1045.965576 872.143982 1052.62915 C 878.807617 1059.34314 878.620728 1068.728516 871.707886 1075.641357 L 836.381104 1110.96814 C 829.518616 1117.830566 820.032593 1118.067749 813.419312 1111.404175 Z M 828.833313 1070.626343 L 854.197205 1095.990234 L 856.792419 1093.344849 L 831.428406 1067.980957 Z M 883.856873 1142.828247 C 897.426025 1142.828247 908.367981 1131.885986 908.367981 1118.266724 C 908.367981 1104.834351 897.364014 1093.82959 883.856873 1093.82959 C 870.362305 1093.82959 859.357605 1104.834351 859.357605 1118.266724 C 859.357605 1131.835571 870.299988 1142.828247 883.856873 1142.828247 Z M 883.856873 1139.1875 C 872.305115 1139.1875 862.94812 1129.818481 862.94812 1118.266724 C 862.94812 1106.839355 872.367371 1097.470459 883.856873 1097.470459 C 895.346008 1097.470459 904.778015 1106.839355 904.778015 1118.266724 C 904.778015 1129.880859 895.408997 1139.1875 883.856873 1139.1875 Z M 861.04657 1120.149414 L 906.617004 1120.149414 L 906.617004 1116.446289 L 861.04657 1116.446289 Z"/>
        </g>
        <g id="Ultralight-M">
            <path id="path29" fill="#000000" stroke="none" d="M 515.575378 1113.55896 C 523.808472 1121.729614 534.227722 1121.791504 542.39801 1113.621216 L 578.783997 1077.235229 C 586.892395 1069.126831 586.830505 1058.521118 578.721619 1050.474487 C 570.488586 1042.303833 560.069397 1042.241943 551.899109 1050.412231 L 515.513123 1086.798218 C 507.404694 1094.906616 507.466583 1105.512329 515.575378 1113.55896 Z M 517.351501 1111.844727 C 510.444489 1104.875854 510.6315 1095.107788 517.78772 1087.95166 L 553.11438 1052.624878 C 560.208679 1045.53064 570.100525 1045.281738 576.945618 1052.188721 C 583.852478 1059.157593 583.665588 1068.925537 576.509399 1076.081787 L 541.182678 1111.408447 C 534.088318 1118.502808 524.196594 1118.751587 517.351501 1111.844727 Z M 533.403015 1069.953979 L 559.242188 1095.793213 L 560.956421 1094.01709 L 535.117188 1068.177856 Z M 586.073608 1142.886353 C 599.294983 1142.886353 609.958984 1132.222046 609.958984 1118.938965 C 609.958984 1105.842773 599.231995 1095.116333 586.073608 1095.116333 C 572.9151 1095.116333 562.188599 1105.842773 562.188599 1118.938965 C 562.188599 1132.160156 572.852783 1142.886353 586.073608 1142.886353 Z M 586.073608 1140.474121 C 574.185608 1140.474121 564.538879 1130.826904 564.538879 1118.938965 C 564.538879 1107.175659 574.247925 1097.528442 586.073608 1097.528442 C 597.899292 1097.528442 607.609009 1107.175659 607.609009 1118.938965 C 607.609009 1130.889282 597.961609 1140.474121 586.073608 1140.474121 Z M 563.089478 1120.207397 L 608.995972 1120.207397 L 608.995972 1117.73291 L 563.089478 1117.73291 Z"/>
        </g>
        <g id="Black-S">
            <path id="path30" fill="#000000" stroke="none" d="M 2887.108398 681.253906 C 2896.044189 690.140625 2908.202393 690.189453 2917.137695 681.253906 L 2945.65332 652.738281 C 2954.491211 643.900391 2954.491211 631.498047 2945.604492 622.660156 C 2936.669189 613.773438 2924.510986 613.724609 2915.575195 622.660156 L 2887.059814 651.175781 C 2878.22168 660.013672 2878.22168 672.416016 2887.108398 681.253906 Z M 2897.508789 670.804688 C 2894.62793 667.875 2894.725586 664.261719 2897.850586 661.136719 L 2925.536133 633.451172 C 2928.710205 630.277344 2932.323486 630.179688 2935.204102 633.109375 C 2938.085205 636.039063 2937.987305 639.652344 2934.862305 642.777344 L 2907.177002 670.462891 C 2904.00293 673.636719 2900.389893 673.734375 2897.508789 670.804688 Z M 2899.461914 645.462891 L 2922.850586 668.851563 L 2933.299805 658.402344 L 2909.911133 635.013672 Z M 2961.229492 708.011719 C 2975.145996 708.011719 2986.375977 696.732422 2986.375977 682.816406 C 2986.375977 668.998047 2975.096924 657.71875 2961.229492 657.71875 C 2947.411133 657.71875 2936.083008 668.998047 2936.083008 682.816406 C 2936.083008 696.683594 2947.362305 708.011719 2961.229492 708.011719 Z M 2961.229492 693.802734 C 2955.174805 693.802734 2950.243408 688.919922 2950.243408 682.816406 C 2950.243408 676.810547 2955.174805 671.878906 2961.229492 671.878906 C 2967.28418 671.878906 2972.216064 676.810547 2972.216064 682.816406 C 2972.216064 688.919922 2967.333008 693.802734 2961.229492 693.802734 Z M 2942.186523 689.505859 L 2980.224121 689.505859 L 2980.224121 676.126953 L 2942.186523 676.126953 Z"/>
        </g>
        <g id="Heavy-S">
            <path id="path31" fill="#000000" stroke="none" d="M 2591.663574 681.069458 C 2600.253418 689.610474 2611.858398 689.647827 2620.425049 681.081055 L 2648.940674 652.56543 C 2657.432861 644.073242 2657.432861 632.258667 2648.891846 623.766479 C 2640.302002 615.225464 2628.697021 615.188232 2620.130127 623.755005 L 2591.614502 652.27063 C 2583.122559 660.762817 2583.122559 672.577393 2591.663574 681.069458 Z M 2600.796143 671.899536 C 2597.558105 668.624146 2597.667236 664.43457 2601.137939 660.963867 L 2628.823486 633.27832 C 2632.331543 629.770264 2636.520996 629.661133 2639.759277 632.936523 C 2642.997314 636.211914 2642.888184 640.401367 2639.41748 643.872192 L 2611.731689 671.557739 C 2608.223877 675.065796 2604.03418 675.174927 2600.796143 671.899536 Z M 2604.627686 645.889282 L 2626.806396 668.067871 L 2635.976318 658.897949 L 2613.797852 636.719238 Z M 2663.883057 706.444458 C 2677.302979 706.444458 2688.131104 695.579956 2688.131104 682.159546 C 2688.131104 668.848145 2677.254883 657.97229 2663.883057 657.97229 C 2650.560303 657.97229 2639.646973 668.848145 2639.646973 682.159546 C 2639.646973 695.542725 2650.511475 706.444458 2663.883057 706.444458 Z M 2663.883057 693.929443 C 2657.390381 693.929443 2652.124512 688.689453 2652.124512 682.159546 C 2652.124512 675.727173 2657.401855 670.449951 2663.883057 670.449951 C 2670.364014 670.449951 2675.653076 675.727173 2675.653076 682.159546 C 2675.653076 688.700928 2670.412842 693.929443 2663.883057 693.929443 Z M 2645.254883 688.11145 L 2682.474121 688.11145 L 2682.474121 676.219116 L 2645.254883 676.219116 Z"/>
        </g>
        <g id="Bold-S">
            <path id="path32" fill="#000000" stroke="none" d="M 2296.376953 680.863281 C 2304.580078 689.017578 2315.566406 689.041992 2323.720703 680.887695 L 2352.236328 652.37207 C 2360.341797 644.266602 2360.341797 633.109375 2352.1875 625.003906 C 2343.984375 616.849609 2332.998047 616.825195 2324.84375 624.979492 L 2296.328125 653.495117 C 2288.222656 661.600586 2288.222656 672.757813 2296.376953 680.863281 Z M 2304.091797 673.124023 C 2300.454102 669.461914 2300.576172 664.62793 2304.433594 660.770508 L 2332.119141 633.084961 C 2336.000977 629.203125 2340.834961 629.081055 2344.472656 632.743164 C 2348.110352 636.405273 2347.988281 641.239258 2344.130859 645.09668 L 2316.445313 672.782227 C 2312.563477 676.664063 2307.729492 676.786133 2304.091797 673.124023 Z M 2310.024414 646.366211 L 2330.849609 667.191406 L 2338.588867 659.452148 L 2317.763672 638.626953 Z M 2366.469727 704.691406 C 2379.335938 704.691406 2389.711914 694.291016 2389.711914 681.424805 C 2389.711914 668.680664 2379.287109 658.255859 2366.469727 658.255859 C 2353.701172 658.255859 2343.251953 668.680664 2343.251953 681.424805 C 2343.251953 694.266602 2353.652344 704.691406 2366.469727 704.691406 Z M 2366.469727 694.071289 C 2359.487305 694.071289 2353.847656 688.431641 2353.847656 681.424805 C 2353.847656 674.515625 2359.511719 668.851563 2366.469727 668.851563 C 2373.427734 668.851563 2379.116211 674.515625 2379.116211 681.424805 C 2379.116211 688.456055 2373.476563 694.071289 2366.469727 694.071289 Z M 2348.305664 686.551758 L 2384.608887 686.551758 L 2384.608887 676.322266 L 2348.305664 676.322266 Z"/>
        </g>
        <g id="Semibold-S">
            <path id="path33" fill="#000000" stroke="none" d="M 2000.642578 680.721069 C 2008.579102 688.608765 2019.138916 688.624268 2027.008789 680.754395 L 2055.524414 652.23877 C 2063.363281 644.399902 2063.363281 633.695923 2055.475586 625.857056 C 2047.539063 617.969238 2036.979248 617.953857 2029.109375 625.82373 L 2000.59375 654.339355 C 1992.754883 662.178223 1992.754883 672.882202 2000.642578 680.721069 Z M 2007.379883 673.968262 C 2003.466675 670.039551 2003.597656 664.76123 2007.72168 660.637207 L 2035.407227 632.95166 C 2039.546753 628.812134 2044.825073 628.681152 2048.738281 632.609863 C 2052.651611 636.538574 2052.520508 641.816895 2048.396484 645.940918 L 2020.710938 673.626465 C 2016.571411 677.765991 2011.293091 677.896973 2007.379883 673.968262 Z M 2014.761108 646.694946 L 2034.653076 666.587158 L 2041.406006 659.834351 L 2021.513916 639.942139 Z M 2069.269043 703.482788 C 2081.753174 703.482788 2091.818115 693.402344 2091.818115 680.918335 C 2091.818115 668.565063 2081.704346 658.451416 2069.269043 658.451416 C 2056.882568 658.451416 2046.753296 668.565063 2046.753296 680.918335 C 2046.753296 693.386841 2056.83374 703.482788 2069.269043 703.482788 Z M 2069.269043 694.169067 C 2061.948975 694.169067 2056.051514 688.253906 2056.051514 680.918335 C 2056.051514 673.680298 2061.982178 667.749634 2069.269043 667.749634 C 2076.555908 667.749634 2082.519775 673.680298 2082.519775 680.918335 C 2082.519775 688.287231 2076.604736 694.169067 2069.269043 694.169067 Z M 2051.424805 685.47644 L 2087.0979 685.47644 L 2087.0979 676.393433 L 2051.424805 676.393433 Z"/>
        </g>
        <g id="Medium-S">
            <path id="path34" fill="#000000" stroke="none" d="M 1704.667603 680.613281 C 1712.401978 688.298828 1722.638306 688.307617 1730.292603 680.65332 L 1758.808228 652.137695 C 1766.444946 644.500977 1766.444946 634.140625 1758.759399 626.503906 C 1751.025024 618.818359 1740.788696 618.80957 1733.134399 626.463867 L 1704.618774 654.979492 C 1696.982056 662.616211 1696.982056 672.976563 1704.667603 680.613281 Z M 1710.663696 674.608398 C 1706.541626 670.477539 1706.679321 664.862305 1711.005493 660.536133 L 1738.69104 632.850586 C 1743.026001 628.515625 1748.641235 628.37793 1752.763306 632.508789 C 1756.885376 636.639648 1756.747681 642.254883 1752.421509 646.581055 L 1724.735962 674.266602 C 1720.401001 678.601563 1714.785767 678.739258 1710.663696 674.608398 Z M 1719.143188 646.944336 L 1738.327759 666.128906 L 1744.332642 660.124023 L 1725.148071 640.939453 Z M 1772.182251 702.566406 C 1784.376587 702.566406 1794.206055 692.728516 1794.206055 680.53418 C 1794.206055 668.477539 1784.327759 658.599609 1772.182251 658.599609 C 1760.085571 658.599609 1750.198853 668.477539 1750.198853 680.53418 C 1750.198853 692.719727 1760.036743 702.566406 1772.182251 702.566406 Z M 1772.182251 694.243164 C 1764.606079 694.243164 1758.513306 688.119141 1758.513306 680.53418 C 1758.513306 673.046875 1764.646118 666.914063 1772.182251 666.914063 C 1779.718384 666.914063 1785.891235 673.046875 1785.891235 680.53418 C 1785.891235 688.15918 1779.767212 694.243164 1772.182251 694.243164 Z M 1754.580688 684.661133 L 1789.775024 684.661133 L 1789.775024 676.447266 L 1754.580688 676.447266 Z"/>
        </g>
        <g id="Regular-S">
            <path id="path35" fill="#000000" stroke="none" d="M 1408.925537 680.472656 C 1416.39624 687.894531 1426.210571 687.894531 1433.58374 680.521484 L 1462.099243 652.005859 C 1469.47229 644.632813 1469.47229 634.720703 1462.050537 627.347656 C 1454.579834 619.925781 1444.765259 619.925781 1437.392334 627.298828 L 1408.876587 655.814453 C 1401.50354 663.1875 1401.50354 673.099609 1408.925537 680.472656 Z M 1413.954834 675.443359 C 1409.560181 671.048828 1409.706665 664.994141 1414.296631 660.404297 L 1441.982056 632.71875 C 1446.572021 628.128906 1452.626587 627.982422 1457.02124 632.376953 C 1461.415649 636.771484 1461.269165 642.826172 1456.679443 647.416016 L 1428.993774 675.101563 C 1424.404053 679.691406 1418.349243 679.837891 1413.954834 675.443359 Z M 1423.866943 647.269531 L 1442.128662 665.53125 L 1447.157959 660.501953 L 1428.89624 642.240234 Z M 1474.989868 701.371094 C 1486.806274 701.371094 1496.328003 691.849609 1496.328003 680.033203 C 1496.328003 668.363281 1486.757446 658.792969 1474.989868 658.792969 C 1463.27124 658.792969 1453.700928 668.363281 1453.700928 680.033203 C 1453.700928 691.849609 1463.22229 701.371094 1474.989868 701.371094 Z M 1474.989868 694.339844 C 1467.079834 694.339844 1460.732056 687.943359 1460.732056 680.033203 C 1460.732056 672.220703 1467.128662 665.824219 1474.989868 665.824219 C 1482.851196 665.824219 1489.296631 672.220703 1489.296631 680.033203 C 1489.296631 687.992188 1482.900146 694.339844 1474.989868 694.339844 Z M 1457.704834 683.597656 L 1492.275146 683.597656 L 1492.275146 676.517578 L 1457.704834 676.517578 Z"/>
        </g>
        <g id="Light-S">
            <path id="path36" fill="#000000" stroke="none" d="M 1114.193359 679.897461 C 1121.346069 687.001465 1130.645874 687.016602 1137.716187 679.946289 L 1166.231934 651.430664 C 1173.286987 644.375488 1173.271851 634.962891 1166.182983 627.922852 C 1159.030151 620.818848 1149.730347 620.803711 1142.660156 627.874023 L 1114.144531 656.389648 C 1107.089233 663.444824 1107.10437 672.857422 1114.193359 679.897461 Z M 1118.08728 676.018555 C 1113.374878 671.291016 1113.521362 664.736816 1118.429077 659.829102 L 1146.114746 632.143555 C 1151.007324 627.250977 1157.591675 627.089355 1162.28894 631.801758 C 1167.001343 636.529297 1166.854858 643.083496 1161.947144 647.991211 L 1134.261597 675.676758 C 1129.369141 680.569336 1122.784546 680.730957 1118.08728 676.018555 Z M 1128.832031 646.391602 L 1147.714355 665.273926 L 1151.59314 661.379883 L 1132.710938 642.497559 Z M 1176.882324 701.446777 C 1188.244629 701.446777 1197.402832 692.288574 1197.402832 680.911133 C 1197.402832 669.680176 1188.195801 660.473145 1176.882324 660.473145 C 1165.602539 660.473145 1156.395508 669.680176 1156.395508 680.911133 C 1156.395508 692.273438 1165.553711 701.446777 1176.882324 701.446777 Z M 1176.882324 696.02002 C 1168.533203 696.02002 1161.807129 689.260254 1161.807129 680.911133 C 1161.807129 672.659668 1168.582031 665.899902 1176.882324 665.899902 C 1185.182617 665.899902 1191.991211 672.659668 1191.991211 680.911133 C 1191.991211 689.309082 1185.231445 696.02002 1176.882324 696.02002 Z M 1159.370117 683.67334 L 1194.379272 683.67334 L 1194.379272 678.197754 L 1159.370117 678.197754 Z"/>
        </g>
        <g id="Thin-S">
            <path id="path37" fill="#000000" stroke="none" d="M 820.09198 679.136719 C 826.824402 685.820313 835.443604 685.855469 842.113525 679.185547 L 870.629089 650.669922 C 877.263916 644.035156 877.228699 635.283203 870.580322 628.683594 C 863.847778 622 855.228699 621.964844 848.558777 628.634766 L 820.043091 657.150391 C 813.408386 663.785156 813.443542 672.537109 820.09198 679.136719 Z M 822.484619 676.779297 C 817.351807 671.611328 817.49823 664.396484 822.826416 659.068359 L 850.511902 631.382813 C 855.804932 626.089844 863.090027 625.908203 868.187683 631.041016 C 873.320496 636.208984 873.174011 643.423828 867.845886 648.751953 L 840.160278 676.4375 C 834.867371 681.730469 827.582214 681.912109 822.484619 676.779297 Z M 834.330322 645.230469 L 854.033386 664.933594 L 856.390808 662.541016 L 836.687683 642.837891 Z M 878.316589 701.546875 C 889.07843 701.546875 897.756104 692.869141 897.756104 682.072144 C 897.756104 671.421875 889.02948 662.695313 878.316589 662.695313 C 867.617432 662.695313 858.890808 671.421875 858.890808 682.072144 C 858.890808 692.833984 867.568604 701.546875 878.316589 701.546875 Z M 878.316589 698.242188 C 869.387024 698.242188 862.1604 691.001953 862.1604 682.072144 C 862.1604 673.240234 869.435791 666 878.316589 666 C 887.19751 666 894.486572 673.240234 894.486572 682.072144 C 894.486572 691.050781 887.246277 698.242188 878.316589 698.242188 Z M 860.504089 683.773438 L 896.093994 683.773438 L 896.093994 680.419922 L 860.504089 680.419922 Z"/>
        </g>
        <g id="Ultralight-S">
            <path id="path38" fill="#000000" stroke="none" d="M 524.718872 678.74707 C 531.236023 685.215454 539.50647 685.260742 545.971375 678.795898 L 574.487 650.280273 C 580.906372 643.86084 580.861023 635.447266 574.438171 629.073242 C 567.921082 622.60498 559.650574 622.559448 553.185669 629.024414 L 524.670105 657.540039 C 518.25061 663.959473 518.296021 672.373047 524.718872 678.74707 Z M 526.342529 677.168945 C 520.994324 671.775391 521.140808 664.222168 526.684326 658.678711 L 554.369812 630.993164 C 559.86792 625.495117 567.511902 625.303223 572.814575 630.651367 C 578.162781 636.044922 578.016296 643.598145 572.472778 649.141602 L 544.787292 676.827148 C 539.289185 682.325195 531.645203 682.51709 526.342529 677.168945 Z M 538.752075 644.635742 L 558.87561 664.759277 L 560.453796 663.135742 L 540.330322 643.012207 Z M 580.656982 701.598145 C 591.111084 701.598145 599.542725 693.166504 599.542725 682.666992 C 599.542725 672.313843 591.062317 663.833496 580.656982 663.833496 C 570.255127 663.833496 561.774597 672.313843 561.774597 682.666992 C 561.774597 693.121094 570.206299 701.598145 580.656982 701.598145 Z M 580.656982 699.380371 C 571.429871 699.380371 563.947021 691.894043 563.947021 682.666992 C 563.947021 673.537598 571.478821 666.05127 580.656982 666.05127 C 589.835205 666.05127 597.3703 673.537598 597.3703 682.666992 C 597.3703 691.942871 589.883972 699.380371 580.656982 699.380371 Z M 562.690674 683.824707 L 598.577881 683.824707 L 598.577881 681.558105 L 562.690674 681.558105 Z"/>
        </g>
    </g>
</svg>
