<?xml version="1.0" encoding="UTF-8"?>
<!-- Generated by Pixelmator Pro 3.0 -->
<svg width="3300" height="2200" viewBox="0 0 3300 2200" xmlns="http://www.w3.org/2000/svg" xmlns:xlink="http://www.w3.org/1999/xlink">
    <g id="Notes">
        <path id="artboard" fill="#ffffff" stroke="none" d="M 0 0 L 3300 0 L 3300 2200 L 0 2200 Z"/>
        <path id="Path" fill="none" stroke="#000000" stroke-width="0.5" stroke-linecap="round" stroke-linejoin="round" d="M 263 292 L 3036 292"/>
        <text id="WeightScale-Variations" xml:space="preserve" x="261" y="320" font-family="Helvetica" font-size="13" font-weight="700" fill="#000000">Weight/Scale Variations</text>
        <text id="Ultralight" xml:space="preserve" x="560" y="320" text-anchor="middle" font-family="Helvetica" font-size="13" fill="#000000">Ultralight</text>
        <text id="Thin" xml:space="preserve" x="856" y="320" text-anchor="middle" font-family="Helvetica" font-size="13" fill="#000000">Thin</text>
        <text id="Light" xml:space="preserve" x="1153.5" y="320" text-anchor="middle" font-family="Helvetica" font-size="13" fill="#000000">Light</text>
        <text id="Regular" xml:space="preserve" x="1450" y="320" text-anchor="middle" font-family="Helvetica" font-size="13" fill="#000000">Regular</text>
        <text id="Medium" xml:space="preserve" x="1746.5" y="320" text-anchor="middle" font-family="Helvetica" font-size="13" fill="#000000">Medium</text>
        <text id="Semibold" xml:space="preserve" x="2043.5" y="320" text-anchor="middle" font-family="Helvetica" font-size="13" fill="#000000">Semibold</text>
        <text id="Bold" xml:space="preserve" x="2339.5" y="320" text-anchor="middle" font-family="Helvetica" font-size="13" fill="#000000">Bold</text>
        <text id="Heavy" xml:space="preserve" x="2636.5" y="320" text-anchor="middle" font-family="Helvetica" font-size="13" fill="#000000">Heavy</text>
        <text id="Black" xml:space="preserve" x="2933" y="320" text-anchor="middle" font-family="Helvetica" font-size="13" fill="#000000">Black</text>
        <path id="path1" fill="none" stroke="#000000" stroke-width="0.5" stroke-linecap="round" stroke-linejoin="round" d="M 263 1903 L 3036 1903"/>
        <g id="Group">
            <path id="path2" fill="#000000" stroke="none" d="M 272.248047 1933.830078 C 276.554688 1933.830078 280.138702 1930.255859 280.138702 1925.949219 C 280.138702 1921.642578 276.544891 1918.068359 272.238281 1918.068359 C 267.941406 1918.068359 264.367188 1921.642578 264.367188 1925.949219 C 264.367188 1930.255859 267.951172 1933.830078 272.248047 1933.830078 Z M 272.248047 1932.345703 C 268.703125 1932.345703 265.871094 1929.503906 265.871094 1925.949219 C 265.871094 1922.394531 268.693359 1919.552734 272.238281 1919.552734 C 275.792999 1919.552734 278.644501 1922.394531 278.644501 1925.949219 C 278.644501 1929.503906 275.802704 1932.345703 272.248047 1932.345703 Z M 268.654297 1925.949219 C 268.654297 1926.378906 268.957031 1926.671875 269.40625 1926.671875 L 271.505859 1926.671875 L 271.505859 1928.791016 C 271.505859 1929.230469 271.798828 1929.533203 272.228516 1929.533203 C 272.677734 1929.533203 272.970703 1929.230469 272.970703 1928.791016 L 272.970703 1926.671875 L 275.089813 1926.671875 C 275.529297 1926.671875 275.832001 1926.378906 275.832001 1925.949219 C 275.832001 1925.509766 275.529297 1925.207031 275.089813 1925.207031 L 272.970703 1925.207031 L 272.970703 1923.097656 C 272.970703 1922.648438 272.677734 1922.345703 272.228516 1922.345703 C 271.798828 1922.345703 271.505859 1922.648438 271.505859 1923.097656 L 271.505859 1925.207031 L 269.40625 1925.207031 C 268.957031 1925.207031 268.654297 1925.509766 268.654297 1925.949219 Z"/>
        </g>
        <g id="g1">
            <path id="path3" fill="#000000" stroke="none" d="M 293.575989 1935.910156 C 299.025208 1935.910156 303.536896 1931.388672 303.536896 1925.949219 C 303.536896 1920.5 299.015411 1915.988281 293.566193 1915.988281 C 288.12677 1915.988281 283.615051 1920.5 283.615051 1925.949219 C 283.615051 1931.388672 288.136536 1935.910156 293.575989 1935.910156 Z M 293.575989 1934.25 C 288.966614 1934.25 285.284973 1930.558594 285.284973 1925.949219 C 285.284973 1921.339844 288.956848 1917.648438 293.566193 1917.648438 C 298.175598 1917.648438 301.876801 1921.339844 301.876801 1925.949219 C 301.876801 1930.558594 298.185394 1934.25 293.575989 1934.25 Z M 289.044739 1925.949219 C 289.044739 1926.427734 289.37677 1926.75 289.874817 1926.75 L 292.745911 1926.75 L 292.745911 1929.630859 C 292.745911 1930.119141 293.077911 1930.460938 293.556488 1930.460938 C 294.044708 1930.460938 294.386505 1930.128906 294.386505 1929.630859 L 294.386505 1926.75 L 297.267395 1926.75 C 297.755707 1926.75 298.097504 1926.427734 298.097504 1925.949219 C 298.097504 1925.460938 297.755707 1925.119141 297.267395 1925.119141 L 294.386505 1925.119141 L 294.386505 1922.248047 C 294.386505 1921.75 294.044708 1921.408203 293.556488 1921.408203 C 293.077911 1921.408203 292.745911 1921.75 292.745911 1922.248047 L 292.745911 1925.119141 L 289.874817 1925.119141 C 289.37677 1925.119141 289.044739 1925.460938 289.044739 1925.949219 Z"/>
        </g>
        <g id="g2">
            <path id="path4" fill="#000000" stroke="none" d="M 320.616699 1938.664063 C 327.57959 1938.664063 333.341309 1932.902344 333.341309 1925.949219 C 333.341309 1918.986328 327.569794 1913.224609 320.606903 1913.224609 C 313.653809 1913.224609 307.901855 1918.986328 307.901855 1925.949219 C 307.901855 1932.902344 313.663574 1938.664063 320.616699 1938.664063 Z M 320.616699 1936.847656 C 314.581543 1936.847656 309.728027 1931.984375 309.728027 1925.949219 C 309.728027 1919.904297 314.571777 1915.050781 320.606903 1915.050781 C 326.651886 1915.050781 331.515106 1919.904297 331.515106 1925.949219 C 331.515106 1931.984375 326.661591 1936.847656 320.616699 1936.847656 Z M 314.845215 1925.949219 C 314.845215 1926.466797 315.216309 1926.828125 315.763214 1926.828125 L 319.708496 1926.828125 L 319.708496 1930.783203 C 319.708496 1931.320313 320.07959 1931.701172 320.597198 1931.701172 C 321.134308 1931.701172 321.505402 1931.330078 321.505402 1930.783203 L 321.505402 1926.828125 L 325.46051 1926.828125 C 325.997589 1926.828125 326.378387 1926.466797 326.378387 1925.949219 C 326.378387 1925.402344 326.007294 1925.03125 325.46051 1925.03125 L 321.505402 1925.03125 L 321.505402 1921.085938 C 321.505402 1920.539063 321.134308 1920.158203 320.597198 1920.158203 C 320.07959 1920.158203 319.708496 1920.539063 319.708496 1921.085938 L 319.708496 1925.03125 L 315.763214 1925.03125 C 315.216309 1925.03125 314.845215 1925.402344 314.845215 1925.949219 Z"/>
        </g>
        <text id="Design-Variations" xml:space="preserve" x="261" y="1951" font-family="Helvetica" font-size="13" font-weight="700" fill="#000000">Design Variations</text>
        <text id="Symbols-are-supported-in" xml:space="preserve" x="261" y="1969" font-family="Helvetica" font-size="13" fill="#000000">Symbols are supported in up to nine weights and three scales.</text>
        <text id="For-optimal-layout-with" xml:space="preserve" x="261" y="1987" font-family="Helvetica" font-size="13" fill="#000000">For optimal layout with text and other symbols, vertically align</text>
        <text id="symbols-with-the-adjacent" xml:space="preserve" x="261" y="2005" font-family="Helvetica" font-size="13" fill="#000000">symbols with the adjacent text.</text>
        <path id="path5" fill="none" stroke="#00aeef" stroke-width="0.5" stroke-linecap="round" stroke-linejoin="round" d="M 776 1919 L 776 1933"/>
        <g id="g3">
            <path id="path6" fill="#000000" stroke="none" d="M 779.310547 1933.15625 C 779.828125 1933.15625 780.082031 1932.960938 780.267578 1932.414063 L 781.527344 1928.966797 L 787.289124 1928.966797 L 788.548828 1932.414063 C 788.734375 1932.960938 788.988281 1933.15625 789.496094 1933.15625 C 790.013672 1933.15625 790.345703 1932.84375 790.345703 1932.355469 C 790.345703 1932.189453 790.316406 1932.033203 790.238281 1931.828125 L 785.658203 1919.630859 C 785.433594 1919.035156 785.033203 1918.732422 784.408203 1918.732422 C 783.802734 1918.732422 783.392578 1919.025391 783.177734 1919.621094 L 778.597656 1931.837891 C 778.519531 1932.042969 778.490234 1932.199219 778.490234 1932.365234 C 778.490234 1932.853516 778.802734 1933.15625 779.310547 1933.15625 Z M 782.005859 1927.482422 L 784.378906 1920.910156 L 784.427734 1920.910156 L 786.800781 1927.482422 Z"/>
        </g>
        <path id="path7" fill="none" stroke="#00aeef" stroke-width="0.5" stroke-linecap="round" stroke-linejoin="round" d="M 793.197021 1919 L 793.197021 1933"/>
        <text id="Margins" xml:space="preserve" x="774" y="1951" font-family="Helvetica" font-size="13" font-weight="700" fill="#000000">Margins</text>
        <text id="Leading-and-trailing-margins" xml:space="preserve" x="774" y="1969" font-family="Helvetica" font-size="13" fill="#000000">Leading and trailing margins on the left and right side of each symbol</text>
        <text id="can-be-adjusted-by" xml:space="preserve" x="774" y="1987" font-family="Helvetica" font-size="13" fill="#000000">can be adjusted by modifying the x-location of the margin guidelines.</text>
        <text id="Modifications-are-automatically-applied" xml:space="preserve" x="774" y="2005" font-family="Helvetica" font-size="13" fill="#000000">Modifications are automatically applied proportionally to all</text>
        <text id="scales-and-weights" xml:space="preserve" x="774" y="2023" font-family="Helvetica" font-size="13" fill="#000000">scales and weights.</text>
        <g id="g4">
            <path id="path8" fill="#000000" stroke="none" d="M 1291.841797 1934.865234 L 1293.541016 1936.574219 C 1294.400391 1937.443359 1295.386719 1937.384766 1296.314453 1936.359375 L 1307.007813 1924.572266 L 1306.041016 1923.595703 L 1295.425781 1935.275391 C 1295.074219 1935.675781 1294.742188 1935.773438 1294.273438 1935.304688 L 1293.101563 1934.142578 C 1292.632813 1933.683594 1292.740234 1933.341797 1293.140625 1932.980469 L 1304.615234 1922.179688 L 1303.638672 1921.212891 L 1292.046875 1932.101563 C 1291.060547 1933.019531 1290.982422 1933.996094 1291.841797 1934.865234 Z M 1298.257813 1916.671875 C 1297.837891 1917.082031 1297.808594 1917.658203 1298.042969 1918.048828 C 1298.277344 1918.410156 1298.736328 1918.644531 1299.380859 1918.478516 C 1300.845703 1918.136719 1302.369141 1918.078125 1303.794922 1919.015625 L 1303.208984 1920.470703 C 1302.867188 1921.300781 1303.042969 1921.886719 1303.580078 1922.433594 L 1305.875 1924.748047 C 1306.363281 1925.236328 1306.773438 1925.255859 1307.339844 1925.158203 L 1308.404297 1924.962891 L 1309.068359 1925.636719 L 1309.029297 1926.193359 C 1308.990234 1926.691406 1309.117188 1927.072266 1309.605469 1927.550781 L 1310.367188 1928.292969 C 1310.845703 1928.771484 1311.460938 1928.800781 1311.929688 1928.332031 L 1314.839844 1925.412109 C 1315.308594 1924.943359 1315.289063 1924.347656 1314.810547 1923.869141 L 1314.039063 1923.107422 C 1313.560547 1922.628906 1313.189453 1922.472656 1312.710938 1922.511719 L 1312.134766 1922.560547 L 1311.490234 1921.925781 L 1311.734375 1920.802734 C 1311.861328 1920.236328 1311.705078 1919.796875 1311.119141 1919.210938 L 1308.921875 1917.023438 C 1305.582031 1913.703125 1301.148438 1913.78125 1298.257813 1916.671875 Z M 1299.751953 1917.042969 C 1302.183594 1915.265625 1305.474609 1915.568359 1307.701172 1917.794922 L 1310.132813 1920.207031 C 1310.367188 1920.441406 1310.40625 1920.626953 1310.337891 1920.96875 L 1310.015625 1922.453125 L 1311.519531 1923.9375 L 1312.505859 1923.878906 C 1312.759766 1923.869141 1312.837891 1923.888672 1313.033203 1924.083984 L 1313.609375 1924.660156 L 1311.167969 1927.101563 L 1310.591797 1926.525391 C 1310.396484 1926.330078 1310.367188 1926.251953 1310.376953 1925.988281 L 1310.445313 1925.011719 L 1308.951172 1923.527344 L 1307.427734 1923.78125 C 1307.105469 1923.849609 1306.958984 1923.820313 1306.714844 1923.585938 L 1304.712891 1921.583984 C 1304.458984 1921.349609 1304.429688 1921.183594 1304.585938 1920.8125 L 1305.464844 1918.722656 C 1303.902344 1917.267578 1301.871094 1916.642578 1299.839844 1917.238281 C 1299.683594 1917.277344 1299.625 1917.150391 1299.751953 1917.042969 Z"/>
        </g>
        <text id="Exporting" xml:space="preserve" x="1287" y="1951" font-family="Helvetica" font-size="13" font-weight="700" fill="#000000">Exporting</text>
        <text id="Symbols-should-be-outlined" xml:space="preserve" x="1287" y="1969" font-family="Helvetica" font-size="13" fill="#000000">Symbols should be outlined when exporting to ensure the</text>
        <text id="design-is-preserved-when" xml:space="preserve" x="1287" y="1987" font-family="Helvetica" font-size="13" fill="#000000">design is preserved when submitting to Xcode.</text>
        <text id="template-version" xml:space="preserve" x="3038" y="1931" text-anchor="end" font-family="Helvetica" font-size="13" fill="#000000">Template v.3.0</text>
        <text id="Requires-Xcode-14-or" xml:space="preserve" x="3038" y="1949" text-anchor="end" font-family="Helvetica" font-size="13" fill="#000000">Requires Xcode 14 or greater</text>
        <text id="Generated-from-syringe" xml:space="preserve" x="3038" y="1967" text-anchor="end" font-family="Helvetica" font-size="13" fill="#000000">Generated from syringe</text>
        <text id="Typeset-at-100-points" xml:space="preserve" x="3038" y="1985" text-anchor="end" font-family="Helvetica" font-size="13" fill="#000000">Typeset at 100 points</text>
        <text id="Small" xml:space="preserve" x="261" y="724" font-family="Helvetica" font-size="13" fill="#000000">Small</text>
        <text id="text1" xml:space="preserve" x="261" y="1154" font-family="Helvetica" font-size="13" fill="#000000">Medium</text>
        <text id="Large" xml:space="preserve" x="261" y="1584" font-family="Helvetica" font-size="13" fill="#000000">Large</text>
    </g>
    <g id="Guides">
        <g id="H-reference">
            <path id="path9" fill="#27aae1" stroke="none" d="M 339.993652 696 L 342.637756 696 L 368.328094 628.867676 L 369.030304 628.867676 L 369.030304 625.541016 L 367.122589 625.541016 Z M 350.688507 671.520142 L 385.981506 671.520142 L 385.231506 669.271484 L 351.438507 669.271484 Z M 394.119598 696 L 396.763702 696 L 369.638214 625.541016 L 368.432587 625.541016 L 368.432587 628.867676 Z"/>
        </g>
        <path id="Baseline-S" fill="none" stroke="#27aae1" stroke-width="0.5" stroke-linecap="round" stroke-linejoin="round" d="M 263 696 L 3036 696"/>
        <path id="Capline-S" fill="none" stroke="#27aae1" stroke-width="0.5" stroke-linecap="round" stroke-linejoin="round" d="M 263 625.541016 L 3036 625.541016"/>
        <g id="g5">
            <path id="path10" fill="#27aae1" stroke="none" d="M 339.993652 1126 L 342.637756 1126 L 368.328094 1058.867676 L 369.030304 1058.867676 L 369.030304 1055.541016 L 367.122589 1055.541016 Z M 350.688507 1101.520142 L 385.981506 1101.520142 L 385.231506 1099.271484 L 351.438507 1099.271484 Z M 394.119598 1126 L 396.763702 1126 L 369.638214 1055.541016 L 368.432587 1055.541016 L 368.432587 1058.867676 Z"/>
        </g>
        <path id="Baseline-M" fill="none" stroke="#27aae1" stroke-width="0.5" stroke-linecap="round" stroke-linejoin="round" d="M 263 1126 L 3036 1126"/>
        <path id="Capline-M" fill="none" stroke="#27aae1" stroke-width="0.5" stroke-linecap="round" stroke-linejoin="round" d="M 263 1055.540039 L 3036 1055.540039"/>
        <g id="g6">
            <path id="path11" fill="#27aae1" stroke="none" d="M 339.993652 1556 L 342.637756 1556 L 368.328094 1488.867676 L 369.030304 1488.867676 L 369.030304 1485.541016 L 367.122589 1485.541016 Z M 350.688507 1531.52002 L 385.981506 1531.52002 L 385.231506 1529.271484 L 351.438507 1529.271484 Z M 394.119598 1556 L 396.763702 1556 L 369.638214 1485.541016 L 368.432587 1485.541016 L 368.432587 1488.867676 Z"/>
        </g>
        <path id="Baseline-L" fill="none" stroke="#27aae1" stroke-width="0.5" stroke-linecap="round" stroke-linejoin="round" d="M 263 1556 L 3036 1556"/>
        <path id="Capline-L" fill="none" stroke="#27aae1" stroke-width="0.5" stroke-linecap="round" stroke-linejoin="round" d="M 263 1485.540039 L 3036 1485.540039"/>
        <path id="left-margin-Regular-M" fill="none" stroke="#00aeef" stroke-width="0.5" stroke-linecap="round" stroke-linejoin="round" d="M 1382.75 1030.790039 L 1382.75 1150.119995"/>
        <path id="right-margin-Regular-M" fill="none" stroke="#00aeef" stroke-width="0.5" stroke-linecap="round" stroke-linejoin="round" d="M 1516.939941 1030.790039 L 1516.939941 1150.119995"/>
    </g>
    <g id="Symbols">
        <g id="Black-L">
            <path id="path12" fill="#000000" stroke="none" d="M 2853.670898 1598.224854 C 2856.864502 1601.338989 2861.73877 1601.145386 2864.954102 1598.007813 L 2890.130615 1572.888672 L 2878.730713 1561.56665 L 2853.612549 1586.684692 C 2850.416504 1589.880615 2850.31665 1595.028931 2853.670898 1598.224854 Z M 2873.25 1563.870361 L 2887.970947 1578.570557 C 2895.965332 1586.543945 2906.929932 1586.247803 2915.359131 1577.799072 L 2979.572021 1513.607666 L 2967.779053 1501.75647 L 2904.478027 1565.058105 C 2902.557617 1566.978516 2899.9646 1566.878662 2897.94165 1564.877686 L 2886.863525 1553.877563 C 2884.861572 1551.935059 2884.861572 1549.261719 2886.862305 1547.282837 L 2950.025879 1484.061523 L 2938.211914 1472.248047 L 2873.904785 1536.519897 C 2865.471436 1544.972656 2865.175293 1555.83728 2873.25 1563.870361 Z M 2886.515381 1534.341309 L 2900.893311 1548.800781 C 2902.365234 1550.310303 2904.750488 1550.250732 2906.26123 1548.779907 C 2907.809814 1547.270264 2907.730469 1544.942139 2906.240479 1543.432617 L 2891.8396 1529.053589 Z M 2900.032715 1520.904419 L 2914.4104 1535.302979 C 2915.921143 1536.792969 2918.266602 1536.792969 2919.777344 1535.302979 C 2921.267334 1533.793457 2921.245361 1531.389648 2919.756592 1529.937256 L 2905.29834 1515.557129 Z M 2913.490234 1507.366211 L 2927.927734 1521.785645 C 2929.438477 1523.216064 2931.725586 1523.275635 2933.236328 1521.785645 C 2934.726318 1520.276123 2934.667725 1517.989258 2933.215576 1516.45752 L 2918.815674 1502.020264 Z M 2927.007568 1493.869873 L 2941.38501 1508.329346 C 2942.837891 1509.817993 2945.221924 1509.759521 2946.731934 1508.329346 C 2948.301025 1506.858887 2948.221924 1504.471924 2946.731934 1502.961182 L 2932.331787 1488.582031 Z M 2927.700439 1468.540771 L 2983.241943 1524.103271 C 2987.337891 1528.198975 2993.85791 1528.198975 2997.954102 1524.103271 C 3001.99292 1520.064941 3002.051025 1513.48584 2997.954102 1509.390381 L 2942.413086 1453.828003 C 2938.217041 1449.653076 2931.795898 1449.731934 2927.700439 1453.828003 C 2923.603516 1457.924561 2923.562012 1464.402222 2927.700439 1468.540771 Z M 2940.883057 1469.503174 L 2982.198975 1510.921143 L 2994.208008 1498.833618 C 2998.302979 1494.757568 2998.323975 1488.217407 2994.208984 1484.143677 L 2988.784912 1478.719482 L 2993.655029 1473.750122 L 2997.85498 1477.988281 C 3001.893066 1482.083984 3008.531006 1482.024292 3012.568115 1477.988281 C 3016.643066 1473.891479 3016.643066 1467.37085 3012.568115 1463.27417 L 2990.546875 1441.273926 C 2986.449951 1437.177979 2979.928955 1437.177979 2975.832031 1441.273926 C 2971.795898 1445.311035 2971.737061 1451.947998 2975.832031 1455.986084 L 2980.090088 1460.185059 L 2975.180908 1465.093384 L 2967.582031 1457.516846 C 2963.486084 1453.421021 2956.966064 1453.419922 2952.870117 1457.516846 Z"/>
        </g>
        <g id="Heavy-L">
            <path id="path13" fill="#000000" stroke="none" d="M 2559.169189 1596.345947 C 2561.97998 1599.081909 2566.293213 1598.929077 2569.139893 1596.151611 L 2594.780029 1570.550537 L 2584.720215 1560.559814 L 2559.124512 1586.155396 C 2556.30249 1588.977417 2556.19751 1593.523926 2559.169189 1596.345947 Z M 2579.289795 1562.151367 L 2593.36499 1576.196533 C 2600.953857 1583.755127 2611.372559 1583.486206 2619.355469 1575.478516 L 2684.02002 1510.849487 L 2673.422119 1500.211792 L 2609.464111 1564.175049 C 2607.390137 1566.248901 2604.603516 1566.143921 2602.413574 1563.989746 L 2591.421875 1553.067139 C 2589.261963 1550.95752 2589.261963 1548.090454 2591.41626 1545.971924 L 2655.26001 1482.089111 L 2644.631104 1471.46582 L 2579.918457 1536.175415 C 2571.889404 1544.228882 2571.620361 1554.54248 2579.289795 1562.151367 Z M 2591.825684 1532.918213 L 2606.436035 1547.614624 C 2607.836182 1549.029297 2610.067139 1548.979004 2611.487549 1547.584473 C 2612.922119 1546.169678 2612.847412 1543.977783 2611.457275 1542.56311 L 2596.80542 1527.947021 Z M 2605.246338 1519.577881 L 2619.856689 1534.218384 C 2621.2771 1535.608521 2623.482422 1535.608521 2624.902588 1534.218384 C 2626.292725 1532.803711 2626.25708 1530.553711 2624.872559 1529.178101 L 2610.181641 1514.556519 Z M 2618.616943 1506.126831 L 2633.277588 1520.797607 C 2634.697998 1522.137451 2636.858398 1522.187744 2638.278809 1520.797607 C 2639.668945 1519.382813 2639.624268 1517.222168 2638.248779 1515.771729 L 2623.602539 1501.111084 Z M 2632.037842 1492.736206 L 2646.647949 1507.432617 C 2648.023926 1508.817139 2650.249023 1508.772461 2651.664063 1507.432617 C 2653.128906 1506.067139 2653.053955 1503.801392 2651.664063 1502.381104 L 2637.017578 1487.765137 Z M 2634.221191 1467.890625 L 2687.581055 1521.280884 C 2691.143066 1524.842773 2696.837891 1524.842773 2700.399902 1521.280884 C 2703.923096 1517.758057 2703.967041 1512.018555 2700.399902 1508.456787 L 2647.044922 1455.065918 C 2643.373047 1451.429932 2637.782959 1451.505005 2634.221191 1455.065918 C 2630.653809 1458.633789 2630.593262 1464.262817 2634.221191 1467.890625 Z M 2647.028076 1469.045654 L 2686.345947 1508.473999 L 2696.601074 1498.143555 C 2700.163086 1494.606323 2700.193115 1488.886719 2696.606934 1485.36084 L 2690.239014 1478.993286 L 2695.913086 1473.249512 L 2700.918945 1478.275635 C 2704.441895 1481.837524 2710.226074 1481.787354 2713.74292 1478.275635 C 2717.274902 1474.708252 2717.274902 1469.013306 2713.74292 1465.445923 L 2691.935059 1443.667969 C 2688.36792 1440.105957 2682.673096 1440.105957 2679.10498 1443.667969 C 2675.593994 1447.185059 2675.542969 1452.968994 2679.10498 1456.486572 L 2684.156006 1461.492676 L 2678.462891 1467.180664 L 2670.072021 1458.825928 C 2666.51001 1455.263916 2660.814941 1455.258057 2657.25293 1458.825928 Z"/>
        </g>
        <g id="Bold-L">
            <path id="path14" fill="#000000" stroke="none" d="M 2265.11792 1594.099854 C 2267.452393 1596.366943 2271.074219 1596.267822 2273.459717 1593.936279 L 2299.624023 1567.787842 L 2291.223877 1559.44165 L 2265.088867 1585.57666 C 2262.728027 1587.937622 2262.622803 1591.738892 2265.11792 1594.099854 Z M 2285.85498 1560.097412 L 2299.175781 1573.380371 C 2306.257813 1580.424316 2315.985107 1580.193481 2323.407715 1572.746338 L 2388.559082 1507.64624 L 2379.495117 1498.566772 L 2314.805176 1563.270264 C 2312.516846 1565.55835 2309.45459 1565.453247 2307.034912 1563.084595 L 2296.083496 1552.187256 C 2293.70166 1549.8479 2293.70166 1546.705322 2296.070313 1544.387939 L 2360.677002 1479.764893 L 2351.575928 1470.676514 L 2286.43042 1535.856934 C 2278.92334 1543.388794 2278.692627 1553.011108 2285.85498 1560.097412 Z M 2297.558838 1531.307495 L 2312.386475 1546.228882 C 2313.679688 1547.513428 2315.711182 1547.470947 2317.008789 1546.190918 C 2318.297607 1544.906494 2318.230469 1542.890991 2316.970703 1541.606689 L 2302.078613 1526.765625 Z M 2310.871582 1518.075073 L 2325.699463 1532.940796 C 2326.99707 1534.200439 2329.010742 1534.200439 2330.308594 1532.940796 C 2331.568115 1531.65625 2331.51709 1529.613403 2330.270508 1528.344971 L 2315.362305 1513.490723 Z M 2324.14209 1504.724121 L 2339.012207 1519.62793 C 2340.309814 1520.845215 2342.294434 1520.887573 2343.592041 1519.62793 C 2344.851807 1518.343506 2344.82251 1516.358887 2343.554199 1515.023315 L 2328.675293 1500.153076 Z M 2337.454834 1491.449219 L 2352.282959 1506.370728 C 2353.551025 1507.617188 2355.569092 1507.588013 2356.854004 1506.370728 C 2358.180908 1505.135742 2358.113037 1503.046143 2356.854004 1501.748413 L 2341.974854 1486.907471 Z M 2341.415283 1467.128418 L 2392.115967 1517.866699 C 2395.023926 1520.775146 2399.705078 1520.775146 2402.613037 1517.866699 C 2405.504883 1514.974365 2405.534912 1510.264648 2402.613037 1507.356201 L 2351.926025 1456.61792 C 2348.898926 1453.641968 2344.32373 1453.709961 2341.415283 1456.61792 C 2338.493652 1459.539551 2338.417725 1464.130859 2341.415283 1467.128418 Z M 2353.64209 1468.641113 L 2390.522949 1505.640137 L 2398.850098 1497.24585 C 2401.758057 1494.362183 2401.795898 1489.656982 2398.863037 1486.799805 L 2391.320068 1479.256836 L 2398.052002 1472.478271 L 2403.98999 1478.420654 C 2406.88208 1481.328979 2411.621094 1481.286621 2414.5 1478.420654 C 2417.371094 1475.498901 2417.371094 1470.818481 2414.5 1467.896729 L 2393.042969 1446.477051 C 2390.121094 1443.56897 2385.440918 1443.56897 2382.519043 1446.477051 C 2379.653076 1449.356934 2379.611084 1454.095947 2382.519043 1456.974854 L 2388.486084 1462.91272 L 2381.75 1469.635742 L 2372.427979 1460.365234 C 2369.52002 1457.456787 2364.839111 1457.443604 2361.930908 1460.365234 Z"/>
        </g>
        <g id="Semibold-L">
            <path id="path15" fill="#000000" stroke="none" d="M 1970.239136 1592.55127 C 1972.245117 1594.495361 1975.390015 1594.433228 1977.457886 1592.408813 L 2003.983398 1565.883301 L 1996.727539 1558.670898 L 1970.220459 1585.177734 C 1968.17749 1587.220825 1968.072144 1590.508179 1970.239136 1592.55127 Z M 1991.401001 1558.681519 L 2004.20166 1571.438965 C 2010.934082 1578.12793 2020.185181 1577.923584 2027.220947 1570.862793 L 2092.708008 1505.43811 L 2084.701904 1497.432617 L 2019.506958 1562.646362 C 2017.071045 1565.082397 2013.818848 1564.977051 2011.240601 1562.460693 L 2000.317261 1551.580811 C 1997.782349 1549.082886 1997.782349 1545.750488 2000.298828 1543.295776 L 2065.431885 1478.162476 L 2057.383057 1470.132324 L 1991.939941 1535.637451 C 1984.79248 1542.809692 1984.588257 1551.955444 1991.401001 1558.681519 Z M 2002.531128 1530.197021 L 2017.508667 1545.273682 C 2018.728149 1546.468262 2020.621948 1546.431152 2021.835083 1545.230225 C 2023.02356 1544.035645 2022.961548 1542.141846 2021.791748 1540.947021 L 2006.733887 1525.951172 Z M 2015.769653 1517.039063 L 2030.74707 1532.060059 C 2031.960327 1533.229736 2033.842041 1533.229736 2035.055054 1532.060059 C 2036.224854 1530.865479 2036.163086 1528.965088 2035.011841 1527.770508 L 2019.953857 1512.755981 Z M 2028.970947 1503.757324 L 2043.985596 1518.821533 C 2045.19873 1519.954346 2047.061768 1519.991455 2048.274902 1518.821533 C 2049.444824 1517.626953 2049.42627 1515.763794 2048.231689 1514.507324 L 2033.192261 1499.492676 Z M 2042.209351 1490.562256 L 2057.187012 1505.638672 C 2058.38208 1506.790039 2060.25708 1506.771484 2061.451904 1505.638672 C 2062.683105 1504.493652 2062.621094 1502.525269 2061.451904 1501.312256 L 2046.412231 1486.316162 Z M 2047.39502 1466.603027 L 2096.260986 1515.512939 C 2098.718994 1517.970947 2102.700928 1517.970947 2105.158936 1515.512939 C 2107.615967 1513.055176 2107.63501 1509.05542 2105.158936 1506.597412 L 2056.311035 1457.687622 C 2053.72876 1455.167969 2049.853027 1455.22998 2047.39502 1457.687622 C 2044.918579 1460.164063 2044.831787 1464.039917 2047.39502 1466.603027 Z M 2059.220947 1468.362183 L 2094.421875 1503.686523 L 2101.419922 1496.626953 C 2103.87793 1494.193848 2103.920898 1490.187988 2101.437988 1487.791748 L 2093.084961 1479.438599 L 2100.545898 1471.946411 L 2107.126953 1478.520508 C 2109.584961 1480.978516 2113.603027 1480.941406 2116.041992 1478.520508 C 2118.457031 1476.043945 2118.457031 1472.062988 2116.041992 1469.586426 L 2094.826904 1448.414063 C 2092.350098 1445.956055 2088.368896 1445.956055 2085.893066 1448.414063 C 2083.471924 1450.854004 2083.435059 1454.87207 2085.893066 1457.311279 L 2092.491943 1463.891724 L 2085.037109 1471.328369 L 2075.072998 1461.426514 C 2072.61499 1458.968506 2068.634033 1458.949951 2066.176025 1461.426514 Z"/>
        </g>
        <g id="Medium-L">
            <path id="path16" fill="#000000" stroke="none" d="M 1674.920288 1591.376953 C 1676.677246 1593.076172 1679.460693 1593.042114 1681.287598 1591.25061 L 1708.087158 1564.439209 L 1701.69873 1558.086304 L 1674.90979 1584.875244 C 1673.107788 1586.677246 1673.002441 1589.575073 1674.920288 1591.376953 Z M 1696.404419 1557.60791 L 1708.810791 1569.966797 C 1715.278198 1576.386719 1724.167847 1576.202271 1730.910645 1569.43457 L 1796.651001 1503.763672 L 1789.448975 1496.572754 L 1723.870483 1562.17334 C 1721.322388 1564.721436 1717.92627 1564.615967 1715.227905 1561.987549 L 1704.325684 1551.12085 C 1701.674683 1548.50293 1701.674683 1545.026367 1704.303223 1542.467773 L 1769.834961 1476.947632 L 1762.584961 1469.719727 L 1696.915527 1535.470947 C 1690.041016 1542.370483 1689.856567 1551.155029 1696.404419 1557.60791 Z M 1707.099609 1529.355225 L 1722.190674 1544.549316 C 1723.354248 1545.675903 1725.143799 1545.642822 1726.292847 1544.501709 C 1727.405029 1543.375244 1727.347046 1541.57373 1726.245483 1540.447021 L 1711.06189 1525.333496 Z M 1720.281616 1516.253662 L 1735.372803 1531.392212 C 1736.521851 1532.493774 1738.303345 1532.493774 1739.452515 1531.392212 C 1740.554077 1530.265625 1740.484253 1528.473511 1739.405029 1527.334961 L 1724.233398 1512.198975 Z M 1733.430664 1503.02417 L 1748.55481 1518.210205 C 1749.703857 1519.278809 1751.474854 1519.311768 1752.624023 1518.210205 C 1753.725586 1517.083618 1753.715088 1515.3125 1752.57666 1514.115967 L 1737.415527 1498.991943 Z M 1746.612671 1489.889526 L 1761.703979 1505.083618 C 1762.842041 1506.16272 1764.609985 1506.152222 1765.735962 1505.083618 C 1766.895996 1504.006836 1766.838013 1502.130493 1765.735962 1500.981445 L 1750.574951 1485.867798 Z M 1752.727295 1466.204834 L 1800.203003 1513.728271 C 1802.319946 1515.844727 1805.77002 1515.844727 1807.886963 1513.728271 C 1810.015015 1511.599854 1810.026001 1508.138672 1807.886963 1506.022217 L 1760.432983 1458.498779 C 1758.188965 1456.324219 1754.84375 1456.382324 1752.727295 1458.498779 C 1750.588379 1460.637573 1750.49353 1463.970947 1752.727295 1466.204834 Z M 1764.25 1468.150635 L 1798.177002 1502.2052 L 1804.166016 1496.157715 C 1806.282959 1494.066284 1806.329956 1490.590576 1804.188965 1488.544067 L 1795.220947 1479.576416 L 1803.235962 1471.543213 L 1810.303955 1478.596191 C 1812.432007 1480.712646 1815.904053 1480.679688 1818.01001 1478.596191 C 1820.078979 1476.457275 1820.078979 1473.006592 1818.01001 1470.867676 L 1796.977051 1449.883057 C 1794.838013 1447.765991 1791.388062 1447.765991 1789.249023 1449.883057 C 1787.165039 1451.989014 1787.131958 1455.460938 1789.249023 1457.566528 L 1796.327026 1464.634033 L 1788.327026 1472.611816 L 1777.875977 1462.231079 C 1775.76001 1460.114746 1772.30896 1460.092285 1770.192017 1462.231079 Z"/>
        </g>
        <g id="Regular-L">
            <path id="path17" fill="#000000" stroke="none" d="M 1380.014038 1589.845459 C 1381.446289 1591.224976 1383.758057 1591.227539 1385.270752 1589.73999 L 1412.427612 1562.555542 L 1407.170898 1557.323975 L 1380.014038 1584.480713 C 1378.526489 1585.968262 1378.420898 1588.358032 1380.014038 1589.845459 Z M 1401.918457 1556.20752 L 1413.810425 1568.046631 C 1419.932129 1574.115601 1428.350708 1573.957275 1434.71106 1567.571777 L 1500.784058 1501.579834 L 1494.626953 1495.451172 L 1428.549805 1561.556396 C 1425.855469 1564.25061 1422.271606 1564.14502 1419.416504 1561.370361 L 1408.54187 1550.520996 C 1405.739624 1547.746338 1405.739624 1544.081909 1408.514282 1541.387573 L 1474.567017 1475.362915 L 1468.358032 1469.181519 L 1402.393311 1535.253906 C 1395.874634 1541.797852 1395.716309 1550.11084 1401.918457 1556.20752 Z M 1412.046265 1528.25708 L 1427.285645 1543.604492 C 1428.376221 1544.642334 1430.029663 1544.614624 1431.095215 1543.551758 C 1432.10791 1542.513916 1432.055054 1540.832764 1431.042358 1539.794922 L 1415.694946 1524.527832 Z M 1425.154663 1515.229004 L 1440.394043 1530.521118 C 1441.459595 1531.533813 1443.110474 1531.533813 1444.176025 1530.521118 C 1445.188721 1529.483276 1445.108276 1527.832397 1444.123169 1526.766846 L 1428.803345 1511.472168 Z M 1438.235474 1502.067871 L 1453.502441 1517.41272 C 1454.567993 1518.397705 1456.218994 1518.425415 1457.284424 1517.41272 C 1458.297119 1516.374878 1458.297119 1514.723877 1457.231689 1513.605713 L 1441.911865 1498.338623 Z M 1451.343872 1489.012085 L 1466.583008 1504.359497 C 1467.649048 1505.344604 1469.275024 1505.344604 1470.312012 1504.359497 C 1471.378052 1503.37207 1471.324951 1501.615479 1470.312012 1500.550049 L 1454.992676 1485.282959 Z M 1458.670166 1465.685181 L 1504.333008 1511.400391 C 1506.004028 1513.071411 1508.763062 1513.071411 1510.43396 1511.400391 C 1512.131958 1509.701782 1512.131958 1506.942871 1510.43396 1505.271729 L 1464.79895 1459.556641 C 1462.994629 1457.832886 1460.341187 1457.885742 1458.670166 1459.556641 C 1456.971558 1461.255371 1456.866089 1463.881104 1458.670166 1465.685181 Z M 1469.797974 1467.874756 L 1502.062988 1500.272949 L 1506.737061 1495.545654 C 1508.407959 1493.899902 1508.46106 1491.115723 1506.765015 1489.525146 L 1496.995972 1479.756226 L 1505.732056 1471.017212 L 1513.435059 1478.695068 C 1515.134033 1480.365967 1517.892944 1480.338379 1519.563965 1478.695068 C 1521.182007 1476.996338 1521.182007 1474.237427 1519.563965 1472.538818 L 1498.770996 1451.797974 C 1497.072021 1450.126953 1494.312988 1450.126953 1492.614014 1451.797974 C 1490.970947 1453.468994 1490.942993 1456.228394 1492.614014 1457.899414 L 1500.317017 1465.602173 L 1491.605957 1474.285767 L 1480.52002 1463.280762 C 1478.848999 1461.609619 1476.089966 1461.582031 1474.418945 1463.280762 Z"/>
        </g>
        <g id="Light-L">
            <path id="path18" fill="#000000" stroke="none" d="M 1084.595947 1588.814941 C 1085.68457 1589.869995 1087.538452 1589.92981 1088.70752 1588.747559 L 1115.902466 1561.505859 L 1111.790894 1557.381104 L 1084.595947 1584.576172 C 1083.413696 1585.758423 1083.346436 1587.63269 1084.595947 1588.814941 Z M 1106.57666 1555.272217 L 1118.239624 1566.901489 C 1123.979614 1572.60791 1131.825684 1572.506836 1137.74707 1566.598389 L 1203.686035 1500.73999 L 1198.942017 1496.042725 L 1132.883545 1562.147949 C 1129.884033 1565.147705 1125.880127 1565.080322 1122.719604 1562.000244 L 1111.444336 1550.711914 C 1108.317505 1547.631836 1108.317505 1543.547485 1111.397583 1540.547852 L 1177.468994 1474.523071 L 1172.69104 1469.792236 L 1106.879761 1535.731079 C 1100.8573 1541.740479 1100.756348 1549.519165 1106.57666 1555.272217 Z M 1116.589966 1528.123413 L 1131.524048 1543.18457 C 1132.423706 1544.050537 1133.886353 1544.003906 1134.799194 1543.150879 C 1135.678345 1542.284912 1135.644653 1540.775513 1134.765503 1539.909424 L 1119.704346 1524.928711 Z M 1129.698364 1515.095459 L 1144.632446 1530.06311 C 1145.545166 1530.942139 1146.94812 1530.942139 1147.86084 1530.06311 C 1148.73999 1529.197021 1148.659546 1527.794189 1147.827148 1526.881348 L 1132.812744 1511.853882 Z M 1142.760132 1501.953369 L 1157.740845 1516.95459 C 1158.653687 1517.786987 1160.056519 1517.83374 1160.96936 1516.95459 C 1161.848389 1516.088623 1161.848389 1514.685669 1160.935547 1513.739258 L 1145.921143 1498.758545 Z M 1155.868652 1488.878418 L 1170.802979 1503.939697 C 1171.714966 1504.771973 1173.130981 1504.771973 1173.996948 1503.939697 C 1174.910034 1503.047485 1174.875977 1501.577271 1173.996948 1500.664551 L 1158.98291 1485.683838 Z M 1163.977295 1465.437134 L 1208.074951 1509.568115 C 1209.344971 1510.838379 1211.454956 1510.838379 1212.724976 1509.568115 C 1214.041992 1508.251221 1214.041992 1506.141113 1212.724976 1504.870972 L 1168.674561 1460.739868 C 1167.290161 1459.436035 1165.247559 1459.469727 1163.977295 1460.739868 C 1162.6604 1462.056885 1162.59314 1464.052734 1163.977295 1465.437134 Z M 1173.959961 1468.638184 L 1204.792969 1499.585938 L 1209.697021 1494.648682 C 1210.967041 1493.365479 1211.000977 1491.268433 1209.744019 1490.078613 L 1199.115967 1479.450806 L 1208.996948 1469.509521 L 1216.910034 1477.435425 C 1218.227051 1478.705566 1220.337036 1478.658813 1221.607056 1477.435425 C 1222.843994 1476.118408 1222.843994 1474.008423 1221.607056 1472.691406 L 1201.615967 1452.734009 C 1200.29895 1451.463013 1198.188965 1451.463013 1196.871948 1452.734009 C 1195.647949 1454.004028 1195.602051 1456.113892 1196.871948 1457.384033 L 1204.785034 1465.296875 L 1194.890015 1475.144775 L 1183.47998 1463.814941 C 1182.209961 1462.544922 1180.099976 1462.498047 1178.828979 1463.814941 Z"/>
        </g>
        <g id="Thin-L">
            <path id="path19" fill="#000000" stroke="none" d="M 789.586792 1587.451904 C 790.221069 1588.077881 791.469116 1588.213379 792.183899 1587.435059 L 819.429321 1560.117554 L 816.832275 1557.456909 L 789.586792 1584.702393 C 788.808411 1585.480713 788.791626 1586.673584 789.586792 1587.451904 Z M 811.668518 1554.0354 L 823.028503 1565.386963 C 828.263672 1570.61377 835.352478 1570.588379 840.69342 1565.311035 L 906.455994 1499.629395 L 903.578979 1496.825317 L 837.546326 1562.93042 C 834.142822 1566.333984 829.583618 1566.317139 826.019287 1562.833252 L 814.213928 1550.964233 C 810.65802 1547.480347 810.65802 1542.840698 814.141907 1539.437256 L 880.239014 1473.412476 L 877.354004 1470.599976 L 811.744385 1536.362061 C 806.378174 1541.664795 806.352905 1548.736694 811.668518 1554.0354 Z M 821.530396 1527.946777 L 836.060486 1542.629272 C 836.707825 1543.268066 837.917969 1543.196289 838.628906 1542.62085 C 839.331299 1541.981934 839.322876 1540.699707 838.620483 1540.060913 L 823.937927 1525.45874 Z M 834.638794 1514.918701 L 849.168884 1529.457275 C 849.879822 1530.159668 850.954529 1530.159668 851.665405 1529.457275 C 852.367798 1528.818359 852.287292 1527.743652 851.656921 1527.032959 L 837.046387 1512.358643 Z M 847.675293 1501.801758 L 862.277405 1516.348877 C 862.98822 1516.979248 864.062988 1517.05127 864.773804 1516.348877 C 865.476196 1515.709961 865.476196 1514.635254 864.765381 1513.916016 L 850.154785 1499.313721 Z M 860.783691 1488.701782 L 875.314026 1503.384399 C 876.025024 1504.014771 877.163025 1504.014771 877.802002 1503.384399 C 878.513 1502.618408 878.504028 1501.526855 877.802002 1500.815918 L 863.191284 1486.213867 Z M 869.927429 1465.109009 L 911.955017 1507.14502 C 912.695007 1507.885132 913.947021 1507.885132 914.687012 1507.14502 C 915.499023 1506.332886 915.499023 1505.081055 914.687012 1504.341064 L 872.731384 1462.304932 C 871.902527 1461.556396 870.66748 1461.564819 869.927429 1462.304932 C 869.115295 1463.116943 869.098389 1464.280029 869.927429 1465.109009 Z M 878.39502 1469.647949 L 907.335999 1498.677246 L 912.541992 1493.46228 C 913.281982 1492.658691 913.291016 1491.470459 912.614014 1490.810669 L 900.849976 1479.046875 L 912.246033 1467.515381 L 920.437012 1475.769409 C 921.249023 1476.509521 922.500977 1476.4375 923.241028 1475.769409 C 923.971985 1474.957275 923.971985 1473.705566 923.241028 1472.893433 L 904.309021 1453.969971 C 903.497009 1453.22998 902.245972 1453.22998 901.432983 1453.969971 C 900.765015 1454.710938 900.692993 1455.961914 901.432983 1456.702637 L 909.624023 1464.893066 L 898.164001 1476.280518 L 886.325012 1464.521729 C 885.585022 1463.781738 884.333008 1463.709717 883.593018 1464.521729 Z"/>
        </g>
        <g id="Ultralight-L">
            <path id="path20" fill="#000000" stroke="none" d="M 493.748688 1586.753662 C 494.150391 1587.159912 495.088013 1587.334229 495.570099 1586.762695 L 522.841431 1559.406494 L 521.02002 1557.495605 L 493.748688 1584.76709 C 493.177216 1585.338501 493.186188 1586.182129 493.748688 1586.753662 Z M 515.882202 1553.401855 L 527.086975 1564.611328 C 532.063599 1569.592407 538.764526 1569.605957 543.808105 1564.651733 L 609.47998 1499.060547 L 607.559998 1497.226074 L 541.540222 1563.331299 C 537.92981 1566.94165 533.086182 1566.950684 529.315002 1563.259766 L 517.238098 1551.093506 C 513.462402 1547.402832 513.462402 1542.47876 517.153198 1538.868408 L 583.263 1472.843628 L 581.348022 1471.013672 L 515.841675 1536.685303 C 510.811615 1541.625977 510.825104 1548.335938 515.882202 1553.401855 Z M 525.666382 1527.856201 L 539.989685 1542.344727 C 540.50769 1542.86731 541.588684 1542.782471 542.196106 1542.349365 C 542.807983 1541.826782 542.8125 1540.661011 542.200623 1540.138428 L 527.711975 1525.730225 Z M 538.774902 1514.828125 L 553.098206 1529.146973 C 553.705627 1529.758911 554.612183 1529.758911 555.219604 1529.146973 C 555.831482 1528.624512 555.751099 1527.717773 555.224121 1527.110352 L 540.820374 1512.61731 Z M 551.798401 1501.724121 L 566.206604 1516.038574 C 566.814026 1516.56543 567.720703 1516.650513 568.328125 1516.038574 C 568.940002 1515.515991 568.940002 1514.609375 568.332581 1514.00647 L 553.928894 1499.598389 Z M 564.906921 1488.611328 L 579.22998 1503.099854 C 579.838013 1503.626953 580.833984 1503.626953 581.356018 1503.099854 C 581.963989 1502.398682 581.968018 1501.500977 581.356018 1500.893555 L 566.952393 1486.485352 Z M 574.580627 1464.940918 L 615.548035 1505.903809 C 616.017029 1506.372314 616.828979 1506.372314 617.298035 1505.903809 C 617.851013 1505.350342 617.851013 1504.538086 617.298035 1504.069336 L 576.414978 1463.106445 C 575.870483 1462.642334 575.049194 1462.637939 574.580627 1463.106445 C 574.0271 1463.660034 574.036133 1464.396484 574.580627 1464.940918 Z M 582.27301 1470.165039 L 610.242981 1498.211792 L 615.60498 1492.854736 C 616.074036 1492.296631 616.069031 1491.57373 615.690002 1491.185547 L 603.343994 1478.840088 L 615.515991 1466.494019 L 623.848999 1474.916016 C 624.401978 1475.384766 625.215027 1475.299805 625.682983 1474.916016 C 626.156006 1474.362549 626.156006 1473.550293 625.682983 1472.996826 L 607.294983 1454.604004 C 606.741028 1454.13501 605.929016 1454.13501 605.375977 1454.604004 C 604.992004 1455.072998 604.906982 1455.88501 605.375977 1456.353516 L 613.708008 1464.686279 L 601.447021 1476.862305 L 589.388 1464.883789 C 588.919983 1464.415283 588.106995 1464.330322 587.638977 1464.883789 Z"/>
        </g>
        <g id="Black-M">
            <path id="path21" fill="#000000" stroke="none" d="M 2869.903076 1152.252563 C 2872.659424 1154.946655 2876.855713 1154.769165 2879.617432 1152.070435 L 2898.729492 1133.015747 L 2888.900635 1123.25 L 2869.845947 1142.30481 C 2867.089844 1145.060791 2867.021729 1149.496704 2869.903076 1152.252563 Z M 2884.616699 1125.512329 L 2896.545654 1137.435547 C 2903.035645 1143.920288 2911.922119 1143.675537 2918.776611 1136.815186 L 2968.118896 1087.477783 L 2958.145996 1077.447266 L 2909.672119 1125.921143 C 2908.274658 1127.318604 2906.375244 1127.250488 2904.9104 1125.790771 L 2896.198975 1117.142334 C 2894.739502 1115.739746 2894.739502 1113.777954 2896.199219 1112.323486 L 2944.553467 1063.911987 L 2934.574951 1053.933105 L 2885.122803 1103.332886 C 2878.309082 1110.152344 2878.064209 1118.970825 2884.616699 1125.512329 Z M 2895.505371 1102.489258 L 2906.40332 1113.449219 C 2907.579346 1114.677002 2909.53418 1114.620239 2910.761719 1113.443726 C 2912.041016 1112.215942 2911.978271 1110.318359 2910.756348 1109.090454 L 2899.853516 1098.192993 Z M 2906.060791 1091.996338 L 2916.958496 1102.899658 C 2918.186035 1104.121582 2920.089844 1104.121582 2921.317383 1102.899658 C 2922.539551 1101.671753 2922.534424 1099.710815 2921.312012 1098.540405 L 2910.351807 1087.643066 Z M 2916.559082 1081.435547 L 2927.513916 1092.344238 C 2928.741455 1093.509521 2930.588135 1093.566284 2931.815674 1092.344238 C 2933.037598 1091.116455 2932.980713 1089.269653 2931.810303 1088.036743 L 2920.906982 1077.082031 Z M 2927.114502 1070.88562 L 2938.012451 1081.845459 C 2939.182861 1083.067749 2941.137939 1083.010742 2942.365723 1081.845459 C 2943.650391 1080.62915 2943.587891 1078.714355 2942.365723 1077.486816 L 2931.462891 1066.589355 Z M 2926.476318 1050.831055 L 2971.169922 1095.530029 C 2974.74707 1099.107544 2980.420898 1099.107544 2983.998047 1095.530029 C 2987.518066 1092.009766 2987.575928 1086.279419 2983.998047 1082.701782 L 2939.304443 1038.002808 C 2935.65918 1034.362549 2930.053711 1034.425171 2926.476318 1038.002808 C 2922.898926 1041.580078 2922.887939 1047.242676 2926.476318 1050.831055 Z M 2936.856445 1051.547974 L 2970.389893 1085.14978 L 2981.230957 1074.24646 C 2984.809082 1070.674805 2984.813965 1064.995605 2981.230957 1061.42334 L 2977.721924 1057.914917 L 2980.961914 1054.567749 L 2983.550049 1057.207642 C 2987.070068 1060.785156 2992.85791 1060.728394 2996.37793 1057.207642 C 2999.949951 1053.630371 2999.949951 1047.957031 2996.37793 1044.379639 L 2979.24292 1027.25 C 2975.666016 1023.671997 2969.991943 1023.671997 2966.415039 1027.25 C 2962.894043 1030.770386 2962.837891 1036.557983 2966.415039 1040.078369 L 2969.061035 1042.667114 L 2965.770996 1045.957764 L 2960.52002 1040.712524 C 2956.943115 1037.13501 2951.269287 1037.135254 2947.69165 1040.712524 Z"/>
        </g>
        <g id="Heavy-M">
            <path id="path22" fill="#000000" stroke="none" d="M 2575.230713 1150.511108 C 2577.644775 1152.865112 2581.334961 1152.722412 2583.767578 1150.347412 L 2603.329346 1130.827026 L 2594.705078 1122.260498 L 2575.187012 1141.778564 C 2572.768311 1144.197144 2572.691895 1148.092529 2575.230713 1150.511108 Z M 2590.466797 1123.918213 L 2601.7854 1135.220581 C 2607.914551 1141.333252 2616.320068 1141.109619 2622.778809 1134.636719 L 2672.574951 1084.859009 L 2663.639893 1075.88269 L 2614.521729 1125.003296 C 2613.002686 1126.522461 2610.952637 1126.446045 2609.352539 1124.864502 L 2600.762695 1116.332397 C 2599.178955 1114.794556 2599.178955 1112.682251 2600.760498 1111.119507 L 2649.777344 1062.061157 L 2640.825928 1053.112061 L 2590.963379 1102.952148 C 2584.499023 1109.430542 2584.275391 1117.759644 2590.466797 1123.918213 Z M 2600.652588 1101.110474 L 2611.806152 1112.328369 C 2612.929688 1113.479248 2614.751221 1113.43335 2615.904541 1112.312012 C 2617.084961 1111.161133 2617.024902 1109.380859 2615.888184 1108.22998 L 2604.713867 1097.074341 Z M 2611.11377 1090.711792 L 2622.26709 1101.88147 C 2623.42041 1103.018311 2625.210205 1103.018311 2626.363281 1101.88147 C 2627.5 1100.730591 2627.481201 1098.897217 2626.34668 1097.78772 L 2615.131104 1086.629761 Z M 2621.528809 1080.234253 L 2632.728027 1091.420532 C 2633.881348 1092.511353 2635.627441 1092.557251 2636.780518 1091.420532 C 2637.91748 1090.269653 2637.873779 1088.523438 2636.76416 1087.353882 L 2625.592285 1076.154541 Z M 2631.98999 1069.789673 L 2643.143311 1081.00769 C 2644.252686 1082.142212 2646.072021 1082.098511 2647.2229 1081.00769 C 2648.419678 1079.88501 2648.359619 1078.062378 2647.2229 1076.909302 L 2636.050781 1065.753662 Z M 2632.736572 1050.218262 L 2675.441895 1092.939941 C 2678.533936 1096.032593 2683.460938 1096.032593 2686.552979 1092.939941 C 2689.60498 1089.88855 2689.647949 1084.918823 2686.552979 1081.826172 L 2643.850342 1039.104614 C 2640.678955 1035.951782 2635.829102 1036.011963 2632.736572 1039.104614 C 2629.641602 1042.199463 2629.608887 1047.090576 2632.736572 1050.218262 Z M 2642.855469 1051.030518 L 2674.566895 1082.821045 L 2683.673096 1073.654785 C 2686.766113 1070.576172 2686.782959 1065.635864 2683.676025 1062.56189 L 2679.324951 1058.210938 L 2683.24292 1054.217529 L 2686.601074 1057.604736 C 2689.6521 1060.69751 2694.665039 1060.651611 2697.714111 1057.604736 C 2700.791016 1054.509888 2700.791016 1049.58374 2697.714111 1046.48877 L 2680.712891 1029.504272 C 2677.61792 1026.411621 2672.691895 1026.411621 2669.596924 1029.504272 C 2666.551025 1032.553345 2666.504883 1037.56665 2669.596924 1040.615845 L 2672.999023 1043.973633 L 2669.051025 1047.918823 L 2663.056885 1041.942993 C 2659.964111 1038.850342 2655.038086 1038.848022 2651.945313 1041.942993 Z"/>
        </g>
        <g id="Bold-M">
            <path id="path23" fill="#000000" stroke="none" d="M 2280.807129 1148.562866 C 2282.838135 1150.536743 2285.962402 1150.432739 2288.0271 1148.420044 L 2308.091797 1128.37854 L 2300.814941 1121.153687 L 2280.778809 1141.189941 C 2278.737305 1143.231201 2278.651611 1146.521606 2280.807129 1148.562866 Z M 2296.627441 1122.135132 L 2307.263916 1132.742798 C 2312.989014 1138.439331 2320.856445 1138.239258 2326.872559 1132.199707 L 2377.177002 1081.929443 L 2369.403076 1074.132446 L 2319.563721 1123.97644 C 2317.908447 1125.631836 2315.689941 1125.546143 2313.938721 1123.828369 L 2305.484619 1115.426514 C 2303.761719 1113.737427 2303.761719 1111.456665 2305.479492 1109.772705 L 2355.237793 1059.990845 L 2347.435547 1052.193726 L 2297.113525 1102.526245 C 2291.040039 1108.623047 2290.840088 1116.404785 2296.627441 1122.135132 Z M 2306.027588 1099.567993 L 2317.466797 1111.074707 C 2318.531738 1112.139526 2320.204102 1112.105957 2321.27417 1111.046143 C 2322.343994 1109.981201 2322.286865 1108.332275 2321.245605 1107.267456 L 2309.767334 1095.822998 Z M 2316.383057 1089.27478 L 2327.82251 1100.742676 C 2328.892334 1101.784058 2330.554443 1101.784058 2331.624512 1100.742676 C 2332.666016 1099.677856 2332.63208 1097.987061 2331.595947 1096.945557 L 2320.094482 1085.496216 Z M 2326.705078 1078.890747 L 2338.177979 1090.387207 C 2339.247803 1091.394897 2340.881592 1091.428467 2341.951416 1090.387207 C 2342.99292 1089.322266 2342.964355 1087.688721 2341.922852 1086.590088 L 2330.449951 1075.117188 Z M 2337.060547 1068.563843 L 2348.499756 1080.070557 C 2349.541016 1081.106689 2351.208252 1081.078247 2352.273193 1080.070557 C 2353.371582 1079.052612 2353.314697 1077.333252 2352.273193 1076.263184 L 2340.800293 1064.818848 Z M 2339.356201 1049.532959 L 2379.836914 1090.042603 C 2382.387939 1092.592773 2386.478027 1092.592773 2389.028076 1090.042603 C 2391.554932 1087.515747 2391.583984 1083.396851 2389.028076 1080.846558 L 2348.552246 1040.337036 C 2345.911133 1037.729614 2341.906494 1037.786743 2339.356201 1040.337036 C 2336.800781 1042.892456 2336.743652 1046.92041 2339.356201 1049.532959 Z M 2349.183105 1050.451538 L 2378.856934 1080.21582 L 2386.021973 1072.992798 C 2388.572998 1070.465942 2388.601074 1066.352173 2386.028076 1063.835693 L 2380.733887 1058.54187 L 2385.410889 1053.825684 L 2389.629883 1058.049072 C 2392.156006 1060.599365 2396.303955 1060.565674 2398.825928 1058.049072 C 2401.346924 1055.493774 2401.346924 1051.403442 2398.825928 1048.848022 L 2381.975098 1032.026001 C 2379.419922 1029.47583 2375.329102 1029.47583 2372.773926 1032.026001 C 2370.25708 1034.547729 2370.224121 1038.695068 2372.773926 1041.216919 L 2377.020996 1045.435181 L 2372.337891 1050.112549 L 2365.51123 1043.319336 C 2362.960938 1040.769043 2358.870605 1040.764038 2356.320313 1043.319336 Z"/>
        </g>
        <g id="Semibold-M">
            <path id="path24" fill="#000000" stroke="none" d="M 1985.674927 1147.219849 C 1987.441772 1148.931519 1990.175659 1148.854248 1991.986694 1147.091187 L 2012.398438 1126.690552 L 2006.050293 1120.390625 L 1985.65686 1140.78418 C 1983.875732 1142.565186 1983.783447 1145.438721 1985.674927 1147.219849 Z M 2001.897949 1120.905762 L 2012.063721 1131.034546 C 2017.510498 1136.444336 2025.00708 1136.260498 2030.71814 1130.519531 L 2081.37207 1079.909912 L 2074.398926 1072.925659 L 2024.062988 1123.268677 C 2022.313721 1125.017944 2019.979248 1124.925659 2018.123413 1123.114136 L 2009.763184 1114.80188 C 2007.944458 1113.008545 2007.944458 1110.611694 2009.756104 1108.844238 L 2060.025635 1058.563599 L 2053.015381 1051.560547 L 2002.376587 1102.232544 C 1996.572632 1108.066528 1996.388916 1115.470825 2001.897949 1120.905762 Z M 2010.756348 1098.504639 L 2022.392578 1110.210449 C 2023.416992 1111.215942 2024.98645 1111.190674 2025.999146 1110.17334 C 2026.993042 1109.167847 2026.937744 1107.609253 2025.962158 1106.60376 L 2014.274658 1094.960449 Z M 2021.039063 1088.28418 L 2032.675415 1099.95752 C 2033.687988 1100.933228 2035.262207 1100.933228 2036.27478 1099.95752 C 2037.250488 1098.952026 2037.206299 1097.359741 2036.237793 1096.365234 L 2024.539185 1084.714722 Z M 2031.296631 1077.964355 L 2042.95813 1089.674805 C 2043.970825 1090.625122 2045.526855 1090.650391 2046.539429 1089.674805 C 2047.515137 1088.669189 2047.496948 1087.113159 2046.502441 1086.063477 L 2034.822021 1074.401978 Z M 2041.579346 1067.71875 L 2053.215576 1079.424438 C 2054.210205 1080.392944 2055.772461 1080.374756 2056.778076 1079.424438 C 2057.808838 1078.47876 2057.753662 1076.830444 2056.778076 1075.817749 L 2045.097656 1064.174438 Z M 2044.943359 1049.060547 L 2083.891113 1088.045166 C 2086.066895 1090.221558 2089.581055 1090.221558 2091.758057 1088.045166 C 2093.923096 1085.879883 2093.940918 1082.347656 2091.758057 1080.171265 L 2052.817139 1041.186646 C 2050.541504 1038.9552 2047.119629 1039.010376 2044.943359 1041.186646 C 2042.759766 1043.370117 2042.685669 1046.802979 2044.943359 1049.060547 Z M 2054.568604 1050.052246 L 2082.836914 1078.4198 L 2088.665039 1072.536377 C 2090.841064 1070.390015 2090.87793 1066.845947 2088.672119 1064.713745 L 2082.728027 1058.770264 L 2087.929932 1053.555664 L 2092.740967 1058.355469 C 2094.906006 1060.531738 2098.457031 1060.50647 2100.61499 1058.355469 C 2102.753906 1056.171997 2102.753906 1052.657959 2100.61499 1050.474487 L 2083.86792 1033.764526 C 2081.684082 1031.588257 2078.169922 1031.588257 2075.987061 1033.764526 C 2073.835938 1035.922729 2073.811035 1039.473145 2075.987061 1041.631226 L 2080.816895 1046.442749 L 2075.626953 1051.625 L 2068.226563 1044.268311 C 2066.050293 1042.091919 2062.536133 1042.084839 2060.359863 1044.268311 Z"/>
        </g>
        <g id="Medium-M">
            <path id="path25" fill="#000000" stroke="none" d="M 1690.161499 1146.201416 C 1691.728149 1147.714355 1694.166138 1147.657349 1695.78479 1146.08374 L 1716.459473 1125.410645 L 1710.815674 1119.812012 L 1690.151245 1140.47644 C 1688.567505 1142.060303 1688.470337 1144.617554 1690.161499 1146.201416 Z M 1706.689941 1119.973633 L 1716.499023 1129.739258 C 1721.734619 1134.931519 1728.949951 1134.760132 1734.429565 1129.245728 L 1785.348999 1078.378662 L 1778.983032 1072.010742 L 1728.270142 1122.731934 C 1726.449585 1124.552368 1724.0271 1124.455322 1722.092285 1122.57251 L 1713.803101 1114.328369 C 1711.911743 1112.455933 1711.911743 1109.970947 1713.794556 1108.140259 L 1764.45166 1057.481445 L 1758.042114 1051.080444 L 1707.162964 1102.009888 C 1701.563354 1107.644409 1701.391968 1114.762573 1706.689941 1119.973633 Z M 1715.137451 1097.698364 L 1726.923218 1109.555054 C 1727.91687 1110.515625 1729.408447 1110.496704 1730.377563 1109.511597 C 1731.313721 1108.551025 1731.26001 1107.061157 1730.334229 1106.100586 L 1718.487915 1094.306274 Z M 1725.365112 1087.533081 L 1737.150757 1099.362183 C 1738.119995 1100.287964 1739.627441 1100.287964 1740.596558 1099.362183 C 1741.522339 1098.401733 1741.470459 1096.883911 1740.553223 1095.925049 L 1728.7052 1084.12207 Z M 1735.573853 1077.262085 L 1747.378418 1089.134644 C 1748.347656 1090.041504 1749.844849 1090.060425 1750.813965 1089.134644 C 1751.739746 1088.174072 1751.72937 1086.67688 1750.770508 1085.664307 L 1738.932739 1073.859741 Z M 1745.801392 1067.077881 L 1757.587158 1078.934448 C 1758.546021 1079.851685 1760.029053 1079.841431 1760.989502 1078.934448 C 1761.968994 1078.043579 1761.915283 1076.449341 1760.989502 1075.480103 L 1749.151855 1063.685791 Z M 1749.97522 1048.702271 L 1787.76001 1086.53064 C 1789.652954 1088.42334 1792.72998 1088.42334 1794.623047 1086.53064 C 1796.514038 1084.639526 1796.524048 1081.552124 1794.623047 1079.659302 L 1756.846558 1041.830933 C 1754.848022 1039.884399 1751.868042 1039.93811 1749.97522 1041.830933 C 1748.073853 1043.7323 1747.987061 1046.713989 1749.97522 1048.702271 Z M 1759.447754 1049.749756 L 1786.650024 1077.057983 L 1791.463989 1072.190308 C 1793.357056 1070.332397 1793.401001 1067.220459 1791.473022 1065.379639 L 1785.036987 1058.943237 L 1790.63501 1053.350952 L 1795.895996 1058.587646 C 1797.786987 1060.480469 1800.88501 1060.461548 1802.766968 1058.587646 C 1804.616943 1056.686279 1804.616943 1053.609131 1802.766968 1051.707764 L 1786.098999 1035.082764 C 1784.197998 1033.189941 1781.119995 1033.189941 1779.218994 1035.082764 C 1777.345093 1036.96521 1777.326172 1040.062866 1779.218994 1041.945435 L 1784.490967 1047.206787 L 1778.916992 1052.771729 L 1771.081055 1044.987671 C 1769.188354 1043.094849 1766.111206 1043.086304 1764.218384 1044.987671 Z"/>
        </g>
        <g id="Regular-M">
            <path id="path26" fill="#000000" stroke="none" d="M 1395.011475 1144.873047 C 1396.316895 1146.126831 1398.368896 1146.096069 1399.736572 1144.769653 L 1420.754395 1123.741211 L 1416.029297 1119.057373 L 1395.011475 1140.075073 C 1393.685059 1141.401611 1393.581543 1143.546631 1395.011475 1144.873047 Z M 1411.938232 1118.757935 L 1421.28186 1128.049805 C 1426.242188 1132.958374 1433.090698 1132.803101 1438.268555 1127.584106 L 1489.533936 1076.381226 L 1483.958984 1070.817383 L 1432.755615 1122.03186 C 1430.842163 1123.94519 1428.30481 1123.841675 1426.266846 1121.866089 L 1418.070313 1113.710693 C 1416.084106 1111.734985 1416.084106 1109.135254 1418.059692 1107.222046 L 1469.222412 1056.069824 L 1463.596436 1050.454346 L 1412.404053 1101.719482 C 1407.070923 1107.09375 1406.915649 1113.838745 1411.938232 1118.757935 Z M 1419.849854 1096.646729 L 1431.830444 1108.700195 C 1432.78418 1109.602051 1434.17395 1109.591553 1435.086548 1108.648438 C 1435.947144 1107.74646 1435.895386 1106.346191 1435.034668 1105.444336 L 1422.981323 1093.453125 Z M 1430.005615 1086.553345 L 1441.986206 1098.585693 C 1442.898682 1099.446533 1444.319092 1099.446533 1445.231567 1098.585693 C 1446.092285 1097.683838 1446.030029 1096.263428 1445.17981 1095.350952 L 1433.136963 1083.349243 Z M 1440.150757 1076.345947 L 1452.141846 1088.430054 C 1453.054321 1089.280151 1454.474854 1089.290771 1455.387329 1088.430054 C 1456.248047 1087.528198 1456.248047 1086.107666 1455.335449 1085.143555 L 1443.292603 1073.152344 Z M 1450.306396 1066.242065 L 1462.286987 1078.295532 C 1463.199463 1079.145752 1464.578735 1079.145752 1465.480591 1078.295532 C 1466.393066 1077.475952 1466.341309 1075.952026 1465.480591 1075.039551 L 1453.437744 1063.04834 Z M 1455.536377 1048.234985 L 1491.805054 1084.555176 C 1493.328003 1086.078125 1495.834961 1086.078125 1497.358032 1084.555176 C 1498.891968 1083.021729 1498.891968 1080.514404 1497.358032 1078.991455 L 1461.10022 1042.671265 C 1459.463257 1041.096436 1457.059448 1041.148315 1455.536377 1042.671265 C 1454.00293 1044.204834 1453.899414 1046.598022 1455.536377 1048.234985 Z M 1464.809814 1049.35498 L 1490.623047 1075.281738 L 1494.114014 1071.739014 C 1495.636963 1070.257202 1495.687988 1067.70874 1494.124023 1066.248047 L 1487.045044 1059.168945 L 1493.161011 1053.08374 L 1499.009033 1058.890625 C 1500.542969 1060.413574 1503.050049 1060.403076 1504.572998 1058.890625 C 1506.043945 1057.357056 1506.043945 1054.849854 1504.572998 1053.316284 L 1488.006958 1036.802124 C 1486.473022 1035.279053 1483.966064 1035.279053 1482.432495 1036.802124 C 1480.920044 1038.324951 1480.909546 1040.832275 1482.432495 1042.355347 L 1488.281006 1048.203369 L 1482.205933 1054.267456 L 1473.802246 1045.926147 C 1472.279419 1044.403198 1469.772095 1044.3927 1468.249146 1045.926147 Z"/>
        </g>
        <g id="Light-M">
            <path id="path27" fill="#000000" stroke="none" d="M 1099.458984 1143.949097 C 1100.456421 1144.911865 1102.097778 1144.932617 1103.157471 1143.879761 L 1124.209473 1122.800171 L 1120.510986 1119.108643 L 1099.458984 1140.160645 C 1098.40625 1141.213379 1098.337036 1142.896362 1099.458984 1143.949097 Z M 1116.454224 1117.919434 L 1125.592651 1127.023193 C 1130.210693 1131.606567 1136.545776 1131.502686 1141.330078 1126.711426 L 1192.475952 1075.628296 L 1188.166992 1071.3479 L 1136.980713 1122.562256 C 1134.793457 1124.74939 1131.879761 1124.680176 1129.567993 1122.430664 L 1121.012085 1113.881836 C 1118.734985 1111.632446 1118.734985 1108.65625 1120.984375 1106.469116 L 1172.164185 1055.317017 L 1167.821533 1051.001953 L 1116.765991 1102.147339 C 1111.877808 1107.04248 1111.773926 1113.30835 1116.454224 1117.919434 Z M 1124.263306 1096.526978 L 1135.970093 1108.323853 C 1136.752686 1109.071655 1137.971313 1109.043945 1138.746948 1108.289063 C 1139.487915 1107.54126 1139.453247 1106.2948 1138.71228 1105.546875 L 1126.915527 1093.812378 Z M 1134.418945 1086.433594 L 1146.125854 1098.175049 C 1146.901245 1098.916016 1148.099365 1098.916016 1148.874878 1098.175049 C 1149.615845 1097.427246 1149.553589 1096.229126 1148.840332 1095.453613 L 1137.071167 1083.691406 Z M 1144.546875 1076.243286 L 1156.281372 1088.019409 C 1157.057007 1088.732666 1158.255005 1088.760254 1159.03064 1088.019409 C 1159.771484 1087.271484 1159.771484 1086.073486 1158.995972 1085.263306 L 1147.226807 1073.528809 Z M 1154.702637 1066.122314 L 1166.409424 1077.919067 C 1167.185059 1078.632324 1168.375977 1078.632324 1169.124023 1077.919067 C 1169.899536 1077.185059 1169.864868 1075.917847 1169.124023 1075.142212 L 1157.354858 1063.407837 Z M 1160.634155 1048.012573 L 1195.5 1082.912476 C 1196.662964 1084.07605 1198.588989 1084.07605 1199.751953 1082.912476 C 1200.94397 1081.721191 1200.94397 1079.795654 1199.751953 1078.63208 L 1164.914551 1043.732056 C 1163.654053 1042.533936 1161.797852 1042.568481 1160.634155 1043.732056 C 1159.442871 1044.92334 1159.373657 1046.751953 1160.634155 1048.012573 Z M 1168.880859 1050.039429 L 1193.410034 1074.665771 L 1197.107056 1070.934814 C 1198.27002 1069.778076 1198.305054 1067.845581 1197.134033 1066.744263 L 1189.285034 1058.895264 L 1196.427979 1051.732056 L 1202.463989 1057.761353 C 1203.655029 1058.925049 1205.581055 1058.897339 1206.744995 1057.761353 C 1207.874023 1056.569946 1207.874023 1054.644531 1206.744995 1053.453247 L 1190.896973 1037.640503 C 1189.706055 1036.476929 1187.780029 1036.476929 1186.589233 1037.640503 C 1185.453247 1038.804077 1185.425537 1040.729614 1186.589233 1041.893311 L 1192.625 1047.929565 L 1185.489868 1055.037476 L 1176.795532 1046.405273 C 1175.631836 1045.241699 1173.706299 1045.213989 1172.542725 1046.405273 Z"/>
        </g>
        <g id="Thin-M">
            <path id="path28" fill="#000000" stroke="none" d="M 804.272827 1142.727051 C 804.862915 1143.305054 805.961121 1143.393677 806.613525 1142.703003 L 827.710693 1121.555542 L 825.370117 1119.176514 L 804.272827 1140.273804 C 803.582214 1140.964478 803.558228 1142.036377 804.272827 1142.727051 Z M 821.358582 1116.810547 L 830.225403 1125.665405 C 834.390808 1129.818726 840.047119 1129.782715 844.310791 1125.557251 L 895.297974 1074.632446 L 892.664001 1072.049438 L 841.500305 1123.263794 C 838.951111 1125.81311 835.539429 1125.789063 832.865479 1123.17749 L 823.834412 1114.108154 C 821.172607 1111.496582 821.172607 1108.022583 823.784119 1105.473389 L 874.986511 1054.321167 L 872.341125 1051.726074 L 821.466675 1102.713135 C 817.166931 1106.974609 817.130798 1112.606812 821.358582 1116.810547 Z M 829.031799 1096.368652 L 840.376526 1107.825928 C 840.9328 1108.370117 841.925232 1108.319824 842.519714 1107.813843 C 843.102173 1107.269653 843.09021 1106.227051 842.50769 1105.682739 L 831.050415 1094.28772 Z M 839.1875 1086.275146 L 850.532227 1097.631958 C 851.126709 1098.214478 852.030579 1098.214478 852.625122 1097.631958 C 853.207581 1097.087646 853.145325 1096.18396 852.613098 1095.589355 L 841.205994 1084.144043 Z M 849.292908 1076.107544 L 860.687927 1087.476318 C 861.28241 1088.008545 862.186218 1088.058838 862.780823 1087.476318 C 863.363281 1086.932007 863.363281 1086.028198 862.768677 1085.421753 L 851.361694 1074.026733 Z M 859.448486 1065.963867 L 870.793213 1077.421143 C 871.387817 1077.953369 872.329895 1077.953369 872.874084 1077.421143 C 873.468689 1076.800415 873.456604 1075.872559 872.874084 1075.277954 L 861.467102 1063.883057 Z M 866.307983 1047.718384 L 899.317993 1080.73999 C 900.005981 1081.428345 901.161987 1081.428345 901.849976 1080.73999 C 902.588989 1080.001343 902.588989 1078.845215 901.849976 1078.156738 L 868.891113 1045.135254 C 868.128418 1044.434814 866.996399 1044.446777 866.307983 1045.135254 C 865.569275 1045.873901 865.545288 1046.955688 866.307983 1047.718384 Z M 873.196899 1050.94458 L 896.028992 1073.851074 L 899.997009 1069.871094 C 900.684998 1069.144409 900.697021 1068.026733 900.046997 1067.400635 L 891.17981 1058.533081 L 899.679993 1049.944214 L 905.965027 1056.2677 C 906.703979 1056.956055 907.859985 1056.905762 908.549011 1056.2677 C 909.224976 1055.529053 909.224976 1054.373047 908.549011 1053.634277 L 893.651978 1038.74939 C 892.913025 1038.061035 891.756897 1038.061035 891.018188 1038.74939 C 890.380188 1039.437744 890.329895 1040.593872 891.018188 1041.282227 L 897.302979 1047.567505 L 888.764832 1056.055786 L 879.68573 1047.039063 C 878.997314 1046.350586 877.841187 1046.300293 877.152832 1047.039063 Z"/>
        </g>
        <g id="Ultralight-M">
            <path id="path29" fill="#000000" stroke="none" d="M 508.343109 1142.101074 C 508.724487 1142.482056 509.544586 1142.605469 509.988312 1142.100342 L 531.108826 1120.917969 L 529.463623 1119.211304 L 508.343109 1140.331787 C 507.838013 1140.837036 507.837097 1141.595947 508.343109 1142.101074 Z M 525.47522 1116.242554 L 534.203003 1124.969849 C 538.136597 1128.903076 543.445068 1128.901855 547.442322 1124.966064 L 598.348022 1074.122559 L 596.57251 1072.408691 L 545.419922 1123.623169 C 542.685181 1126.35791 539.018494 1126.357056 536.15918 1123.560059 L 526.884705 1114.223999 C 524.025818 1111.427002 524.025818 1107.697998 526.822815 1104.963257 L 578.036804 1053.811157 L 576.260681 1052.097046 L 525.479004 1103.00293 C 521.480591 1106.939819 521.479309 1112.247559 525.47522 1116.242554 Z M 533.078918 1096.287354 L 544.23822 1107.570923 C 544.678589 1108.010742 545.554993 1107.948853 546.056824 1107.570557 C 546.558228 1107.130493 546.5578 1106.192139 546.056396 1105.752319 L 534.77301 1094.531128 Z M 543.234619 1086.194092 L 554.393921 1097.35376 C 554.895691 1097.855103 555.648804 1097.855103 556.150574 1097.35376 C 556.651978 1096.913818 556.589722 1096.160645 556.150208 1095.658936 L 544.928589 1084.375854 Z M 553.328369 1076.037964 L 564.5495 1087.19812 C 565.051392 1087.637573 565.804504 1087.699463 566.306274 1087.19812 C 566.807678 1086.758179 566.807678 1086.005005 566.305908 1085.502808 L 555.08429 1074.281738 Z M 563.48407 1065.88269 L 574.643311 1077.16626 C 575.145081 1077.605713 575.959717 1077.605713 576.399597 1077.16626 C 576.901367 1076.603271 576.901001 1075.849365 576.399597 1075.347656 L 565.178101 1064.126343 Z M 570.818787 1047.567749 L 602.877991 1079.627197 C 603.322998 1080.072144 604.085022 1080.072144 604.529968 1079.627197 C 605.036987 1079.120361 605.036987 1078.358398 604.529968 1077.913452 L 572.532471 1045.853882 C 572.02478 1045.408447 571.263672 1045.408936 570.818787 1045.853882 C 570.31189 1046.360718 570.311096 1047.060059 570.818787 1047.567749 Z M 577.012207 1051.408325 L 598.974976 1073.433838 L 603.08197 1069.326294 C 603.526978 1068.819946 603.526978 1068.119385 603.143982 1067.736694 L 593.754883 1058.347656 L 602.950989 1049.028564 L 609.362976 1055.502686 C 609.869995 1055.947632 610.632019 1055.885742 611.077026 1055.502686 C 611.521973 1054.99585 611.521973 1054.233887 611.077026 1053.727051 L 596.667175 1039.317383 C 596.160278 1038.872437 595.398376 1038.872437 594.891479 1039.317383 C 594.508423 1039.762329 594.446472 1040.524292 594.891479 1040.969238 L 601.304016 1047.381958 L 592.046997 1056.577393 L 582.770691 1047.363525 C 582.325684 1046.918457 581.563782 1046.856689 581.118774 1047.363525 Z"/>
        </g>
        <g id="Black-S">
            <path id="path30" fill="#000000" stroke="none" d="M 2883.086914 709.427734 C 2885.333008 711.625 2888.750977 711.478516 2890.99707 709.28125 L 2905.84082 694.486328 L 2897.833008 686.527344 L 2883.038086 701.322266 C 2880.791992 703.568359 2880.743164 707.181641 2883.086914 709.427734 Z M 2894.463867 688.431641 L 2903.985352 697.953125 C 2909.161133 703.128906 2916.241211 702.933594 2921.709961 697.464844 L 2960.235352 658.939453 L 2952.178711 650.833984 L 2914.385742 688.626953 C 2913.311523 689.701172 2911.84668 689.652344 2910.723633 688.529297 L 2903.838867 681.693359 C 2902.71582 680.619141 2902.71582 679.105469 2903.838867 677.982422 L 2941.53418 640.238281 L 2933.477539 632.181641 L 2894.854492 670.755859 C 2889.43457 676.175781 2889.239258 683.207031 2894.463867 688.431641 Z M 2903.204102 670.365234 L 2911.651367 678.861328 C 2912.579102 679.837891 2914.141602 679.789063 2915.118164 678.861328 C 2916.143555 677.884766 2916.094727 676.371094 2915.118164 675.394531 L 2906.670898 666.947266 Z M 2911.504883 662.113281 L 2919.952148 670.560547 C 2920.928711 671.537109 2922.442383 671.537109 2923.418945 670.560547 C 2924.395508 669.583984 2924.395508 668.021484 2923.418945 667.09375 L 2914.922852 658.646484 Z M 2919.756836 653.8125 L 2928.25293 662.259766 C 2929.229492 663.1875 2930.694336 663.236328 2931.670898 662.259766 C 2932.647461 661.283203 2932.598633 659.818359 2931.670898 658.841797 L 2923.223633 650.345703 Z M 2928.057617 645.511719 L 2936.504883 654.007813 C 2937.432617 654.984375 2938.995117 654.935547 2939.97168 654.007813 C 2940.99707 653.03125 2940.948242 651.517578 2939.97168 650.541016 L 2931.524414 642.09375 Z M 2927.178711 629.642578 L 2962.725586 665.189453 C 2965.655273 668.119141 2970.293945 668.119141 2973.223877 665.189453 C 2976.104004 662.308594 2976.153076 657.621094 2973.223877 654.691406 L 2937.676758 619.144531 C 2934.698242 616.166016 2930.108398 616.214844 2927.178711 619.144531 C 2924.249023 622.074219 2924.249023 626.712891 2927.178711 629.642578 Z M 2935.333008 630.228516 L 2962.09082 657.035156 L 2971.124023 647.953125 C 2974.053955 645.023438 2974.053955 640.384766 2971.124023 637.455078 L 2968.584961 634.916016 L 2970.977539 632.425781 L 2972.783936 634.28125 C 2975.665039 637.210938 2980.400879 637.162109 2983.281982 634.28125 C 2986.211914 631.351563 2986.211914 626.712891 2983.281982 623.783203 L 2969.854492 610.355469 C 2966.924805 607.425781 2962.286133 607.425781 2959.356445 610.355469 C 2956.475586 613.236328 2956.426758 617.972656 2959.356445 620.853516 L 2961.211914 622.660156 L 2958.770508 625.101563 L 2954.864258 621.195313 C 2951.93457 618.265625 2947.295898 618.265625 2944.366211 621.195313 Z"/>
        </g>
        <g id="Heavy-S">
            <path id="path31" fill="#000000" stroke="none" d="M 2587.970947 708.056274 C 2589.963379 710.000122 2593.001221 709.876587 2595.005371 707.921387 L 2610.229248 692.734619 L 2603.120361 685.674561 L 2587.933594 700.861328 C 2585.941162 702.853882 2585.880859 706.063843 2587.970947 708.056274 Z M 2599.785889 687.175415 L 2608.811768 696.189941 C 2613.722412 701.089111 2620.456787 700.905273 2625.637451 695.713135 L 2664.566162 656.795898 L 2657.235596 649.427979 L 2618.889404 687.77417 C 2617.746094 688.91748 2616.200684 688.857178 2614.996826 687.664917 L 2608.261963 680.97876 C 2607.06958 679.823975 2607.06958 678.229614 2608.261963 677.04895 L 2646.521973 638.751587 L 2639.179688 631.409546 L 2600.187988 670.37561 C 2595.01001 675.564941 2594.826416 682.239014 2599.785889 687.175415 Z M 2607.938232 669.201294 L 2616.63916 677.950928 C 2617.543701 678.881348 2619.01416 678.844116 2619.94458 677.939453 C 2620.900879 677.008911 2620.852051 675.575928 2619.933105 674.645386 L 2611.220703 665.94458 Z M 2616.158447 661.030029 L 2624.859131 669.74231 C 2625.789795 670.661255 2627.234131 670.661255 2628.164795 669.74231 C 2629.083496 668.811768 2629.072021 667.329956 2628.15332 666.43689 L 2619.403564 657.736084 Z M 2624.341309 652.79834 L 2633.079346 661.522217 C 2634.009766 662.403809 2635.416992 662.441162 2636.347412 661.522217 C 2637.266357 660.591675 2637.229004 659.184448 2636.335938 658.242554 L 2627.623779 649.504395 Z M 2632.561279 644.589844 L 2641.262207 653.339355 C 2642.155273 654.258301 2643.625488 654.220947 2644.556152 653.339355 C 2645.523926 652.432007 2645.475098 650.964355 2644.556152 650.033936 L 2635.84375 641.33313 Z M 2632.777344 629.146973 L 2666.802979 663.184204 C 2669.36377 665.745117 2673.437744 665.745117 2675.998779 663.184204 C 2678.521973 660.660645 2678.560059 656.549316 2675.998779 653.988403 L 2641.973145 619.951172 C 2639.351807 617.341553 2635.338135 617.390259 2632.777344 619.951172 C 2630.216309 622.512085 2630.193359 626.56311 2632.777344 629.146973 Z M 2640.839355 629.698364 L 2666.202637 655.12207 L 2673.726318 647.549805 C 2676.287109 645.000366 2676.298584 640.914917 2673.726318 638.365479 L 2670.564697 635.204102 L 2673.406982 632.29895 L 2675.847412 634.765259 C 2678.371094 637.326172 2682.52002 637.28894 2685.042969 634.765259 C 2687.593018 632.204346 2687.593018 628.130371 2685.042969 625.569458 L 2671.638428 612.17627 C 2669.077637 609.615356 2665.003662 609.615356 2662.442627 612.17627 C 2659.919189 614.699951 2659.881836 618.848511 2662.442627 621.37207 L 2664.92041 623.812622 L 2662.052734 626.68042 L 2657.547119 622.186401 C 2654.986084 619.625488 2650.912354 619.625488 2648.351318 622.186401 Z"/>
        </g>
        <g id="Bold-S">
            <path id="path32" fill="#000000" stroke="none" d="M 2293.051758 706.522461 C 2294.760742 708.182617 2297.373047 708.084961 2299.106445 706.400391 L 2314.755859 690.775391 L 2308.652344 684.720703 L 2293.027344 700.345703 C 2291.318359 702.054688 2291.245117 704.813477 2293.051758 706.522461 Z M 2305.356445 685.770508 L 2313.828125 694.217773 C 2318.442383 698.807617 2324.790039 698.636719 2329.648438 693.753906 L 2369.02832 654.398438 L 2362.509766 647.855469 L 2323.544922 686.820313 C 2322.324219 688.041016 2320.688721 687.967773 2319.394531 686.698242 L 2312.827148 680.179688 C 2311.557617 678.93457 2311.557617 677.25 2312.827148 676.004883 L 2351.71875 637.088867 L 2345.175781 630.545898 L 2305.771484 669.950195 C 2300.864258 674.881836 2300.693359 681.15625 2305.356445 685.770508 Z M 2312.851563 667.899414 L 2321.835938 676.932617 C 2322.714844 677.811523 2324.082031 677.787109 2324.960938 676.908203 C 2325.839844 676.029297 2325.791016 674.686523 2324.936523 673.807617 L 2315.927734 664.823242 Z M 2320.981445 659.818359 L 2329.96582 668.827148 C 2330.844727 669.681641 2332.211914 669.681641 2333.09082 668.827148 C 2333.945313 667.948242 2333.920898 666.556641 2333.066406 665.702148 L 2324.033203 656.717773 Z M 2329.086914 651.664063 L 2338.095703 660.697266 C 2338.974609 661.527344 2340.317383 661.551758 2341.196289 660.697266 C 2342.050781 659.818359 2342.026367 658.475586 2341.172119 657.572266 L 2332.163086 648.563477 Z M 2337.216797 643.558594 L 2346.201172 652.591797 C 2347.055664 653.446289 2348.422852 653.421875 2349.301758 652.591797 C 2350.205322 651.761719 2350.15625 650.345703 2349.301758 649.466797 L 2340.292969 640.482422 Z M 2338.657227 628.592773 L 2370.981445 660.941406 C 2373.129883 663.089844 2376.572266 663.089844 2378.720703 660.941406 C 2380.844727 658.817383 2380.869141 655.350586 2378.720703 653.202148 L 2346.396484 620.853516 C 2344.174805 618.65625 2340.805664 618.705078 2338.657227 620.853516 C 2336.508789 623.001953 2336.459961 626.395508 2338.657227 628.592773 Z M 2346.616211 629.105469 L 2370.419922 652.982422 L 2376.254883 647.098633 C 2378.40332 644.974609 2378.427734 641.507813 2376.254883 639.383789 L 2372.397461 635.526367 L 2375.742188 632.157227 L 2378.891602 635.306641 C 2381.015625 637.455078 2384.50708 637.430664 2386.631104 635.306641 C 2388.754883 633.158203 2388.754883 629.71582 2386.631104 627.567383 L 2373.251953 614.212891 C 2371.103516 612.064453 2367.661133 612.064453 2365.512695 614.212891 C 2363.388916 616.336914 2363.364258 619.828125 2365.512695 621.952148 L 2368.686523 625.101563 L 2365.341797 628.446289 L 2360.166016 623.294922 C 2358.017822 621.146484 2354.575195 621.146484 2352.426758 623.294922 Z"/>
        </g>
        <g id="Semibold-S">
            <path id="path33" fill="#000000" stroke="none" d="M 1997.580811 705.464966 C 1999.094238 706.929565 2001.41333 706.849731 2002.960083 705.351807 L 2018.90271 689.424561 L 2013.492432 684.06311 L 1997.565186 699.990234 C 1996.051758 701.503662 1995.969604 703.951416 1997.580811 705.464966 Z M 2010.223145 684.80188 L 2018.312744 692.858154 C 2022.722656 697.234619 2028.803589 697.072632 2033.439819 692.403076 L 2073.130859 652.745483 L 2067.172119 646.77124 L 2027.78064 686.16272 C 2026.506592 687.436768 2024.808716 687.354614 2023.452515 686.031738 L 2017.000732 679.628662 C 2015.677856 678.321411 2015.677856 676.574585 2017.000732 675.285156 L 2056.327637 635.942505 L 2050.335693 629.950439 L 2010.647095 669.65686 C 2005.926514 674.410767 2005.764526 680.40979 2010.223145 684.80188 Z M 2017.265015 667.001953 L 2026.444946 676.230591 C 2027.306152 677.073853 2028.602051 677.05835 2029.445557 676.197266 C 2030.271118 675.353882 2030.22229 674.073242 2029.412231 673.22998 L 2020.198975 664.050049 Z M 2025.332642 658.983032 L 2034.512573 668.196167 C 2035.355957 669.006348 2036.6698 669.006348 2037.513184 668.196167 C 2038.323242 667.352783 2038.289917 666.023438 2037.479858 665.195557 L 2028.251221 656.015747 Z M 2033.384888 650.881958 L 2042.580322 660.12854 C 2043.423584 660.922974 2044.722046 660.938599 2045.565308 660.12854 C 2046.375366 659.285156 2046.359863 657.986816 2045.531982 657.110229 L 2036.318848 647.914673 Z M 2041.452515 642.847656 L 2050.632324 652.076416 C 2051.460205 652.886353 2052.756348 652.87085 2053.599609 652.076416 C 2054.458496 651.299561 2054.409912 649.919067 2053.599609 649.075806 L 2044.386475 639.895874 Z M 2043.737183 628.210571 L 2074.888428 659.395142 C 2076.752441 661.259155 2079.759521 661.259155 2081.623291 659.395142 C 2083.471924 657.546631 2083.487549 654.524048 2081.623291 652.660156 L 2050.472412 621.475586 C 2048.526123 619.562744 2045.601318 619.61145 2043.737183 621.475586 C 2041.873047 623.3396 2041.806519 626.280029 2043.737183 628.210571 Z M 2051.625 628.696655 L 2074.353516 651.507202 L 2079.024414 646.787598 C 2080.888428 644.956787 2080.921631 641.916626 2079.024414 640.085815 L 2074.687012 635.748535 L 2078.378418 632.059448 L 2082.016602 635.679932 C 2083.86499 637.543945 2086.903076 637.528442 2088.751953 635.679932 C 2090.582031 633.815796 2090.582031 630.808838 2088.751953 628.944824 L 2075.390381 615.616943 C 2073.526367 613.75293 2070.519287 613.75293 2068.655518 615.616943 C 2066.806885 617.465454 2066.79126 620.50354 2068.655518 622.352051 L 2072.309082 625.990234 L 2068.635498 629.663818 L 2062.997803 624.059204 C 2061.133545 622.195068 2058.126709 622.195068 2056.262695 624.059204 Z"/>
        </g>
        <g id="Medium-S">
            <path id="path34" fill="#000000" stroke="none" d="M 1701.806152 704.663086 C 1703.171387 705.979492 1705.268066 705.913086 1706.67334 704.556641 L 1722.838379 688.400391 L 1717.953735 683.564453 L 1701.797363 699.720703 C 1700.432251 701.085938 1700.343262 703.297852 1701.806152 704.663086 Z M 1714.70459 684.067383 L 1722.504517 691.827148 C 1726.759277 696.041992 1732.638184 695.886719 1737.105957 691.378906 L 1777.032837 651.492188 L 1771.498657 645.949219 L 1731.783813 685.664063 C 1730.46936 686.978516 1728.724243 686.889648 1727.320923 685.526367 L 1720.956543 679.210938 C 1719.593262 677.856445 1719.593262 676.0625 1720.956543 674.739258 L 1760.61377 635.073242 L 1755.039551 629.499023 L 1715.135254 669.43457 C 1710.556152 674.053711 1710.400879 679.84375 1714.70459 684.067383 Z M 1721.402954 666.321289 L 1730.730957 675.698242 C 1731.578735 676.514648 1732.820923 676.505859 1733.637329 675.658203 C 1734.422363 674.841797 1734.373657 673.608398 1733.597168 672.791992 L 1724.229126 663.463867 Z M 1729.42334 658.349609 L 1738.751465 667.717773 C 1739.567871 668.494141 1740.841431 668.494141 1741.657837 667.717773 C 1742.434082 666.901367 1742.394043 665.619141 1741.617676 664.811523 L 1732.240845 655.483398 Z M 1737.435059 650.289063 L 1746.771973 659.697266 C 1747.588379 660.464844 1748.853149 660.473633 1749.669556 659.697266 C 1750.445923 658.880859 1750.437134 657.616211 1749.629517 656.759766 L 1740.261353 647.422852 Z M 1745.455566 642.308594 L 1754.783813 651.685547 C 1755.591431 652.461914 1756.833618 652.453125 1757.650024 651.685547 C 1758.47522 650.949219 1758.42627 649.595703 1757.650024 648.779297 L 1748.28186 639.451172 Z M 1748.380371 627.920898 L 1778.64209 658.222656 C 1780.290649 659.871094 1782.967285 659.871094 1784.615845 658.222656 C 1786.255371 656.583008 1786.26416 653.897461 1784.615845 652.249023 L 1754.354126 621.947266 C 1752.616821 620.25 1750.028931 620.298828 1748.380371 621.947266 C 1746.732056 623.595703 1746.651855 626.192383 1748.380371 627.920898 Z M 1756.214355 628.386719 L 1778.127441 650.388672 L 1781.915649 646.551758 C 1783.563965 644.943359 1783.604126 642.226563 1781.915649 640.618164 L 1777.214355 635.916992 L 1781.168457 631.985352 L 1785.177246 635.962891 C 1786.817017 637.611328 1789.511353 637.602539 1791.150879 635.962891 C 1792.759033 634.314453 1792.759033 631.637695 1791.150879 629.989258 L 1777.803345 616.681641 C 1776.154785 615.033203 1773.478149 615.033203 1771.82959 616.681641 C 1770.189941 618.321289 1770.181152 621.015625 1771.82959 622.655273 L 1775.847168 626.664063 L 1771.924438 630.586914 L 1765.936157 624.638672 C 1764.28772 622.990234 1761.61084 622.990234 1759.962524 624.638672 Z"/>
        </g>
        <g id="Regular-S">
            <path id="path35" fill="#000000" stroke="none" d="M 1406.316772 703.617188 C 1407.488647 704.740234 1409.295288 704.691406 1410.515991 703.519531 L 1426.971069 687.064453 L 1422.771851 682.914063 L 1406.316772 699.369141 C 1405.144897 700.541016 1405.047241 702.445313 1406.316772 703.617188 Z M 1419.549194 683.109375 L 1426.971069 690.482422 C 1431.023804 694.486328 1436.63916 694.339844 1440.887085 690.042969 L 1481.12146 649.857422 L 1476.140991 644.876953 L 1436.004272 685.013672 C 1434.637085 686.380859 1432.830444 686.283203 1431.365601 684.867188 L 1425.115601 678.666016 C 1423.699585 677.25 1423.699585 675.394531 1425.115601 674.027344 L 1465.203491 633.939453 L 1460.174194 628.910156 L 1419.988647 669.144531 C 1415.594116 673.587891 1415.447754 679.105469 1419.549194 683.109375 Z M 1425.799194 665.433594 L 1435.320679 675.003906 C 1436.150757 675.785156 1437.322754 675.785156 1438.103882 674.955078 C 1438.836304 674.173828 1438.787476 673.001953 1438.055054 672.220703 L 1428.484741 662.699219 Z M 1433.758179 657.523438 L 1443.279663 667.09375 C 1444.060913 667.826172 1445.281616 667.826172 1446.062866 667.09375 C 1446.795288 666.3125 1446.74646 665.091797 1446.01416 664.310547 L 1436.443848 654.789063 Z M 1441.717163 649.515625 L 1451.238647 659.134766 C 1452.019897 659.867188 1453.240601 659.867188 1454.021851 659.134766 C 1454.754272 658.353516 1454.754272 657.132813 1453.973022 656.302734 L 1444.40271 646.78125 Z M 1449.676147 641.605469 L 1459.197754 651.175781 C 1459.978882 651.908203 1461.150757 651.908203 1461.932007 651.175781 C 1462.713257 650.492188 1462.664551 649.173828 1461.932007 648.392578 L 1452.361694 638.871094 Z M 1453.435913 627.542969 L 1482.537476 656.693359 C 1483.904663 658.060547 1486.150757 658.060547 1487.517944 656.693359 C 1488.885254 655.326172 1488.885254 653.080078 1487.517944 651.712891 L 1458.416382 622.5625 C 1456.95166 621.146484 1454.803101 621.195313 1453.435913 622.5625 C 1452.068848 623.929688 1451.971069 626.078125 1453.435913 627.542969 Z M 1461.199585 627.982422 L 1482.049194 648.929688 L 1484.685913 646.244141 C 1486.053101 644.925781 1486.102051 642.630859 1484.685913 641.3125 L 1479.510254 636.136719 L 1483.807007 631.888672 L 1488.299194 636.332031 C 1489.666382 637.699219 1491.912476 637.699219 1493.279663 636.332031 C 1494.598022 634.964844 1494.598022 632.71875 1493.279663 631.351563 L 1479.949585 618.070313 C 1478.582397 616.703125 1476.336304 616.703125 1474.969116 618.070313 C 1473.602051 619.4375 1473.602051 621.683594 1474.969116 623.050781 L 1479.461304 627.542969 L 1475.213257 631.791016 L 1468.767944 625.394531 C 1467.400757 624.027344 1465.154663 624.027344 1463.787476 625.394531 Z"/>
        </g>
        <g id="Light-S">
            <path id="path36" fill="#000000" stroke="none" d="M 1110.619995 702.799805 C 1111.519409 703.665527 1112.962769 703.662109 1113.911011 702.732422 L 1130.396362 686.231934 L 1127.105347 682.959473 L 1110.619995 699.444824 C 1109.690308 700.374512 1109.622925 701.870117 1110.619995 702.799805 Z M 1123.912964 682.367676 L 1131.153198 689.574219 C 1134.903198 693.290527 1140.064453 693.189453 1143.964355 689.270996 L 1184.092651 649.191406 L 1180.2323 645.346191 L 1140.110718 685.48291 C 1138.501343 687.092285 1136.361694 687.024902 1134.654663 685.366699 L 1128.086792 678.817383 C 1126.413452 677.15918 1126.413452 674.970703 1128.071655 673.361328 L 1168.174683 633.273438 L 1164.28064 629.394531 L 1124.216187 669.522949 C 1120.21521 673.54248 1120.114258 678.63623 1123.912964 682.367676 Z M 1130.072144 665.327637 L 1139.35144 674.670898 C 1140.030151 675.315918 1141.050659 675.300781 1141.710815 674.637207 C 1142.33728 673.992188 1142.303589 672.956543 1141.677246 672.311523 L 1132.333862 663.01709 Z M 1138.03125 657.41748 L 1147.310547 666.730469 C 1147.970581 667.356934 1148.994507 667.356934 1149.654663 666.730469 C 1150.28125 666.085449 1150.2323 665.061523 1149.620972 664.401367 L 1140.292847 655.091797 Z M 1145.974976 649.424805 L 1155.269409 658.771484 C 1155.929565 659.382813 1156.953491 659.397949 1157.613647 658.771484 C 1158.240112 658.126465 1158.240112 657.102539 1157.579956 656.408691 L 1148.251953 647.114258 Z M 1153.93396 641.499512 L 1163.213257 650.842773 C 1163.873413 651.454102 1164.878784 651.454102 1165.523804 650.842773 C 1166.18396 650.234863 1166.150269 649.143555 1165.523804 648.483398 L 1156.195679 639.188965 Z M 1158.314453 627.346191 L 1186.174683 655.240234 C 1187.223999 656.289551 1188.955444 656.289551 1190.004761 655.240234 C 1191.069336 654.175781 1191.069336 652.444336 1190.004761 651.39502 L 1162.159546 623.500977 C 1161.02771 622.417969 1159.363647 622.45166 1158.314453 623.500977 C 1157.249878 624.56543 1157.182495 626.214355 1158.314453 627.346191 Z M 1165.1698 628.587891 L 1184.884155 648.384766 L 1187.702637 645.532715 C 1188.751953 644.501953 1188.785645 642.751953 1187.717651 641.751465 L 1181.86084 635.894531 L 1187.065796 630.692871 L 1191.724487 635.333008 C 1192.789063 636.382324 1194.520386 636.367188 1195.569702 635.333008 C 1196.585449 634.268555 1196.585449 632.537109 1195.569702 631.472656 L 1182.875366 618.812012 C 1181.810913 617.762695 1180.079468 617.762695 1179.015015 618.812012 C 1177.980957 619.861328 1177.965698 621.592773 1179.015015 622.64209 L 1183.673706 627.300781 L 1178.487183 632.472168 L 1171.784546 625.818359 C 1170.735352 624.769043 1169.003784 624.753906 1167.954468 625.818359 Z"/>
        </g>
        <g id="Thin-S">
            <path id="path37" fill="#000000" stroke="none" d="M 815.264771 701.71875 C 815.803833 702.244141 816.766724 702.300781 817.354614 701.691406 L 833.880005 685.130859 L 831.790222 683.019531 L 815.264771 699.544922 C 814.655396 700.154297 814.628052 701.109375 815.264771 701.71875 Z M 828.637817 681.386719 L 835.637817 688.373047 C 838.987427 691.708984 843.547974 691.667969 846.987427 688.25 L 886.975708 648.310547 L 884.596802 645.966797 L 844.495178 686.103516 C 842.565613 688.033203 839.985474 688.005859 837.95813 686.027344 L 830.96991 679.017578 C 828.956177 677.039063 828.956177 674.410156 830.934692 672.480469 L 871.0578 632.392578 L 868.665222 630.035156 L 828.760925 670.023438 C 825.280396 673.482422 825.23938 678.015625 828.637817 681.386719 Z M 834.67688 665.1875 L 843.635925 674.230469 C 844.11438 674.695313 844.934692 674.660156 845.434692 674.216797 C 845.921021 673.751953 845.90741 672.896484 845.421021 672.431641 L 836.378113 663.4375 Z M 842.635925 657.277344 L 851.59491 666.25 C 852.09491 666.736328 852.858521 666.736328 853.358521 666.25 C 853.84491 665.785156 853.796021 665.021484 853.34491 664.521484 L 844.336975 655.492188 Z M 850.559692 649.304688 L 859.553772 658.291016 C 860.053772 658.742188 860.817505 658.777344 861.317505 658.291016 C 861.803772 657.826172 861.803772 657.0625 861.303772 656.548828 L 852.296021 647.554688 Z M 858.518677 641.359375 L 867.477722 650.402344 C 867.977722 650.853516 868.762817 650.853516 869.227722 650.402344 C 869.727722 649.894531 869.713989 649.103516 869.227722 648.603516 L 860.21991 639.609375 Z M 863.719788 627.085938 L 889.938599 653.318359 C 890.567505 653.947266 891.618286 653.947266 892.247192 653.318359 C 892.911316 652.654297 892.911316 651.603516 892.247192 650.974609 L 866.063599 624.742188 C 865.372192 624.099609 864.348694 624.113281 863.719788 624.742188 C 863.055786 625.40625 863.028381 626.394531 863.719788 627.085938 Z M 869.374207 629.388672 L 887.587097 647.664063 L 890.645691 644.591797 C 891.274597 643.941406 891.288208 642.912109 890.680786 642.332031 L 883.922974 635.574219 L 890.329224 629.111328 L 895.20813 634.011719 C 895.872192 634.640625 896.922974 634.605469 897.55188 634.011719 C 898.167175 633.347656 898.167175 632.296875 897.55188 631.632813 L 885.698425 619.792969 C 885.034302 619.164063 883.983521 619.164063 883.319519 619.792969 C 882.725708 620.421875 882.690491 621.472656 883.319519 622.101563 L 888.198425 626.980469 L 881.77063 633.373047 L 874.727722 626.378906 C 874.098816 625.75 873.047974 625.714844 872.419128 626.378906 Z"/>
        </g>
        <g id="Ultralight-S">
            <path id="path38" fill="#000000" stroke="none" d="M 519.24646 701.165039 C 519.600952 701.516113 520.31781 701.603516 520.72113 701.158203 L 537.267029 684.566895 L 535.792419 683.050293 L 519.24646 699.596191 C 518.801147 700.041504 518.794312 700.719727 519.24646 701.165039 Z M 532.660522 680.884277 L 539.537476 687.757813 C 542.682007 690.898926 546.934998 690.888672 550.138611 687.727051 L 590.055115 647.859375 L 588.434998 646.284668 L 548.343628 686.421387 C 546.249878 688.515137 543.444214 688.508301 541.252808 686.365723 L 534.049194 679.120117 C 531.861328 676.977539 531.861328 674.123047 534.003784 672.029297 L 574.137085 631.941406 L 572.513611 630.363281 L 532.691284 670.279785 C 529.477417 673.45166 529.467224 677.697754 532.660522 680.884277 Z M 538.638123 665.115723 L 547.432983 674.004883 C 547.809021 674.377441 548.526794 674.332031 548.944702 674.001465 C 549.359314 673.628906 549.355896 672.865723 548.941284 672.493164 L 540.052124 663.652832 Z M 546.597107 657.205566 L 555.392029 666.003906 C 555.809998 666.418457 556.440308 666.418457 556.858276 666.003906 C 557.272888 665.631348 557.223999 665.000977 556.854919 664.583008 L 548.011108 655.697266 Z M 554.51062 649.243164 L 563.351013 658.044922 C 563.768921 658.414063 564.399292 658.459473 564.817322 658.044922 C 565.231812 657.672363 565.231812 657.041992 564.813904 656.620605 L 555.970093 647.780273 Z M 562.469604 641.287598 L 571.264526 650.176758 C 571.682495 650.545898 572.354919 650.545898 572.727417 650.176758 C 573.145386 649.720215 573.142029 649.083008 572.727417 648.665039 L 563.883728 639.824707 Z M 568.091187 626.952637 L 593.469116 652.333984 C 593.88269 652.747559 594.5849 652.747559 594.998474 652.333984 C 595.45752 651.875 595.45752 651.172852 594.998474 650.759277 L 569.665894 625.37793 C 569.200073 624.960938 568.504822 624.964355 568.091187 625.37793 C 567.632202 625.836914 567.625427 626.486816 568.091187 626.952637 Z M 573.13031 629.798828 L 590.574097 647.294922 L 593.755798 644.109863 C 594.169373 643.654297 594.172791 642.994141 593.801208 642.629395 L 586.58197 635.410156 L 593.603394 628.30127 L 598.595093 633.334961 C 599.054077 633.748657 599.756287 633.703247 600.169922 633.334961 C 600.580017 632.875977 600.580017 632.173828 600.169922 631.714844 L 588.747009 620.29541 C 588.288025 619.881836 587.585815 619.881836 587.12677 620.29541 C 586.758728 620.708984 586.713318 621.411133 587.12677 621.824707 L 592.118469 626.816406 L 585.055115 633.834473 L 577.837769 626.666016 C 577.424194 626.252441 576.722107 626.207031 576.308472 626.666016 Z"/>
        </g>
    </g>
</svg>
